<?xml version="1.0" encoding="UTF-8" standalone="no"?>
<!DOCTYPE svg PUBLIC "-//W3C//DTD SVG 1.1//EN" "http://www.w3.org/Graphics/SVG/1.1/DTD/svg11.dtd">
<svg width="100%" height="100%" viewBox="0 0 200 200" version="1.1" xmlns="http://www.w3.org/2000/svg" xmlns:xlink="http://www.w3.org/1999/xlink" xml:space="preserve" xmlns:serif="http://www.serif.com/" style="fill-rule:evenodd;clip-rule:evenodd;stroke-linecap:round;stroke-linejoin:round;stroke-miterlimit:1.5;">
    <g transform="matrix(0.969349,0,0,0.969349,2.59759,3.06506)">
        <g id="Background">
            <circle cx="100" cy="100" r="100" style="fill:none;stroke:rgb(85,86,86);stroke-width:5.16px;"/>
        </g>
    </g>
    <g transform="matrix(0.379828,0,0,0.379828,-14.6324,-90.5397)">
        <path d="M380.737,590.022C381.805,575.502 381.377,571.402 382.522,561.324C383.667,551.243 388.699,557.539 397.463,553.156C407.997,547.89 418.668,543.604 420.272,544.291C421.876,544.979 424.991,561.891 438.507,566.014C452.024,570.137 458.387,578.934 466.861,591.075C475.34,603.217 484.535,609.317 486.598,614.358C488.66,619.399 482.705,627.188 492.785,625.585C502.867,623.981 504.492,618.582 500.598,614.228C496.703,609.875 485.451,579.533 474.688,562.351C463.918,545.167 459.792,533.022 458.648,526.608C457.503,520.194 461.398,512.514 458.418,498.598C455.442,484.683 454.296,482.392 457.045,474.144C459.792,465.896 467.35,452.665 471.02,447.338C479.953,434.377 470.791,427.633 459.792,426.03C448.794,424.429 447.193,425.573 444.67,416.178C442.152,406.785 445.589,405.41 437.34,396.934C429.092,388.458 416.104,401.67 417.193,409.247C418.536,418.567 426.114,424.884 426.114,424.884C426.114,424.884 418.555,436.799 415.576,444.13C412.597,451.462 412.137,458.564 413.973,473.228C415.804,487.89 412.948,489.952 412.886,494.075C412.826,498.199 412.367,503.239 409.617,505.073C406.868,506.906 406.505,515.372 397.827,520.042C383.924,527.518 379.775,529.313 373.962,531.787C366.21,535.089 366.154,590.022 366.154,590.022C364.25,601.61 379.889,601.555 380.737,590.022Z" style="fill:rgb(85,86,86);fill-rule:nonzero;"/>
    </g>
    <g transform="matrix(0.379828,0,0,0.379828,-14.6324,-90.5397)">
        <path d="M463.305,457.12C463.305,457.12 476.279,465.587 478.672,466.696C481.066,467.804 496.914,455.066 496.914,455.066C496.914,455.066 481.961,444.005 477.799,438.847C473.637,433.689 469.568,427.702 463.727,428.281C457.885,428.86 463.305,457.12 463.305,457.12Z" style="fill:rgb(85,86,86);fill-rule:nonzero;"/>
    </g>
    <g transform="matrix(0.379828,0,0,0.379828,-14.6324,-90.5397)">
        <path d="M485.35,454.922C480.922,458.429 478.152,465.159 480.99,471.531C483.828,477.903 485.121,477.855 484.352,482.534C483.584,487.212 484.273,489.558 481.889,490.818C479.5,492.08 476.441,494.726 476.283,498.874C476.125,503.024 478.15,501.08 478.498,504.485C478.709,506.547 481.24,506.237 482.314,505.384C482.314,505.384 484.586,508.406 486.238,504.996C486.238,504.996 488.371,506.703 489.883,503.209C489.883,503.209 492.697,503.938 493.336,499.106C493.973,494.276 491.363,494.66 493.398,488.354C495.432,482.048 500.553,468.79 499.408,462.826C498.262,456.862 499.254,455.67 496.676,454.689C494.73,453.944 491.822,449.796 485.35,454.922Z" style="fill:rgb(85,86,86);fill-rule:nonzero;"/>
    </g>
    <g transform="matrix(0.379828,0,0,0.379828,-14.6324,-90.5397)">
        <path d="M424.981,449.749C424.981,449.749 407.558,439.065 399.46,427.71C391.36,416.356 381.805,407.307 387.037,405.748C388.993,405.166 391.617,401.713 408.878,394.734C414.567,392.433 417.495,388.218 420.844,385.55C424.067,382.979 428.547,387.088 429.033,389.603C429.519,392.117 412.515,401.247 408.03,407.413C403.542,413.58 408.217,411.037 415.273,415.915C422.33,420.794 429.938,428.096 437.22,433.123C443.54,437.489 431.173,447.345 424.981,449.749Z" style="fill:rgb(85,86,86);fill-rule:nonzero;"/>
    </g>
    <g transform="matrix(0.379828,0,0,0.379828,-14.6324,-90.5397)">
        <path d="M479.766,404.129C480.092,403.938 480.322,403.629 480.418,403.267L480.826,400.884C481.025,400.129 480.57,399.354 479.813,399.157L410.354,381.492C409.597,381.297 408.825,381.746 408.625,382.505L408.22,384.887C408.023,385.643 408.479,386.416 409.234,386.615L478.691,404.276C479.059,404.372 479.439,404.319 479.766,404.129Z" style="fill:rgb(85,86,86);fill-rule:nonzero;"/>
    </g>
    <g transform="matrix(0.379828,0,0,0.379828,-14.6324,-90.5397)">
        <path d="M302.184,503.897L302.106,499.306L502.838,495.954L502.914,500.545L302.184,503.897Z" style="fill:rgb(85,86,86);fill-rule:nonzero;"/>
    </g>
    <g transform="matrix(0.379828,0,0,0.379828,-14.6324,-90.5397)">
        <path d="M422.08,382.62C423.442,381.582 424.268,382.708 424.726,382.511C426.467,381.768 427.074,383.634 427.694,383.491C430.306,382.885 429.443,384.608 430.795,384.452C433.053,384.195 432.64,386.972 432.56,388.396C432.473,389.817 429.03,390.876 431.886,391.153C434.747,391.428 434.489,393.516 430.976,393.014C427.46,392.512 424.778,392.379 422.935,394.194C421.094,396.01 415.571,392.914 416.828,389.651C418.082,386.386 419.66,384.466 422.08,382.62Z" style="fill:rgb(85,86,86);fill-rule:nonzero;"/>
    </g>
    <g transform="matrix(0.379828,0,0,0.379828,-14.6324,-90.5397)">
        <path d="M473.578,412.144L478.592,405.943C478.83,405.651 479.08,405.116 479.154,404.744L481.311,393.878C481.383,393.509 481.143,393.149 480.773,393.076L473.584,391.65C473.215,391.577 472.857,391.816 472.783,392.188L470.627,403.051C470.553,403.423 470.58,404.013 470.688,404.373L472.955,412.023C473.063,412.382 473.34,412.44 473.578,412.144Z" style="fill:rgb(85,86,86);fill-rule:nonzero;"/>
    </g>
    <g transform="matrix(0.379828,0,0,0.379828,-14.6324,-90.5397)">
        <path d="M459.464,512.477C459.464,512.477 444.381,550.572 446.816,572.485C449.252,594.401 457.202,590.842 431.778,587.596C406.355,584.35 375.979,586.195 373.962,570.186C371.946,554.172 397.168,520.878 412.235,511.209C427.301,501.539 453.443,495.079 459.464,512.477Z" style="fill:rgb(85,86,86);fill-rule:nonzero;"/>
    </g>
    <g transform="matrix(0.379828,0,0,0.379828,-14.6324,-90.5397)">
        <rect x="247.331" y="551.749" width="116.358" height="74.051" style="fill:rgb(85,86,86);fill-rule:nonzero;"/>
    </g>
    <g transform="matrix(0.379828,0,0,0.379828,-14.6324,-90.5397)">
        <path d="M357.529,512.716L357.529,503.703C357.529,503.445 357.321,503.234 357.059,503.234L287.843,503.234C287.583,503.234 287.373,503.445 287.373,503.703L287.373,506.021L280.109,506.021C279.849,506.021 279.64,506.231 279.64,506.491L279.64,507.043L240.692,507.043C238.808,507.043 256.005,525.651 278.932,525.651L279.64,525.651L279.64,526.358C279.64,526.618 279.849,526.828 280.109,526.828L288.389,526.828C291.837,529.406 295.988,534.029 291.69,539.393C289.131,542.584 281.916,543.276 281.916,543.276L275.91,549.874L275.91,558.119L289.806,558.119C289.806,558.119 293.693,555.058 294.988,554.467C296.284,553.878 300.642,552.349 306.885,552.349C306.911,552.349 306.935,552.343 306.963,552.342C306.988,552.343 307.013,552.349 307.039,552.349C313.281,552.349 317.641,553.878 318.935,554.467C320.229,555.058 324.115,558.119 324.115,558.119L338.015,558.119L338.015,549.874L332.008,543.276C332.008,543.276 323.112,542.755 320.784,539.393C314.455,530.251 325.502,514.305 357.061,513.201C357.321,513.193 357.529,512.975 357.529,512.716Z" style="fill:rgb(85,86,86);fill-rule:nonzero;"/>
    </g>
    <g transform="matrix(0.379828,0,0,0.379828,-14.6324,-90.5397)">
        <path d="M279.397,522.354L276.906,506.516L279.649,506.324L279.397,522.354Z" style="fill:white;fill-rule:nonzero;"/>
    </g>
    <g transform="matrix(0.379828,0,0,0.379828,-14.6324,-90.5397)">
        <path d="M287.32,513.741L284.644,504.779L287.364,504.39L287.32,513.741Z" style="fill:white;fill-rule:nonzero;"/>
    </g>
    <g transform="matrix(0.379828,0,0,0.379828,-14.6324,-90.5397)">
        <path d="M289.394,550.287C289.394,550.287 289.48,550.137 289.64,549.86C289.806,549.582 290.042,549.169 290.383,548.676C290.721,548.178 291.133,547.57 291.659,546.915C292.173,546.251 292.779,545.515 293.497,544.764C294.204,544 295.003,543.199 295.93,542.434C296.39,542.044 296.86,541.645 297.383,541.279C297.64,541.093 297.902,540.905 298.164,540.714C298.437,540.536 298.724,540.371 299.008,540.197C299.293,540.03 299.577,539.849 299.873,539.686C300.178,539.535 300.486,539.385 300.796,539.233C301.403,538.9 302.078,538.679 302.752,538.448L303.256,538.275L303.785,538.156L304.851,537.92C305.203,537.83 305.58,537.841 305.943,537.797L306.495,537.753L306.771,537.732L306.909,537.72L306.977,537.714L306.995,537.714L307.089,537.717L307.122,537.72L308.138,537.806C308.486,537.844 308.797,537.832 309.184,537.937C309.915,538.116 310.699,538.229 311.343,538.506C311.679,538.627 312.013,538.749 312.345,538.871C312.677,538.995 312.974,539.179 313.287,539.327C313.594,539.488 313.9,539.644 314.202,539.8C314.489,539.981 314.774,540.16 315.055,540.336C315.629,540.682 316.153,541.064 316.652,541.46C317.166,541.835 317.622,542.258 318.074,542.654C318.978,543.446 319.758,544.269 320.44,545.052C321.135,545.829 321.718,546.579 322.212,547.262C322.715,547.933 323.115,548.549 323.436,549.06C323.761,549.564 323.983,549.985 324.141,550.265C324.293,550.545 324.374,550.699 324.374,550.699C324.374,550.699 323.928,550.175 323.11,549.308C322.706,548.873 322.198,548.356 321.612,547.775C321.03,547.193 320.352,546.558 319.603,545.888C319.221,545.557 318.835,545.201 318.407,544.873C317.98,544.54 317.566,544.168 317.098,543.842C316.634,543.508 316.174,543.147 315.664,542.839C315.161,542.522 314.664,542.175 314.12,541.895C313.852,541.745 313.584,541.594 313.315,541.443C313.032,541.317 312.751,541.191 312.466,541.064C311.903,540.787 311.311,540.598 310.718,540.395C310.118,540.149 309.544,540.108 308.961,539.95C308.691,539.865 308.316,539.875 307.985,539.843L306.967,539.776L306.104,539.832C305.794,539.865 305.48,539.842 305.174,539.92L304.251,540.108L303.791,540.197L303.343,540.346C302.75,540.552 302.144,540.709 301.578,540.981C301.292,541.102 301.003,541.224 300.72,541.344C300.441,541.48 300.172,541.632 299.899,541.775C299.632,541.919 299.359,542.056 299.098,542.208C298.84,542.365 298.586,542.526 298.332,542.68C297.817,542.976 297.337,543.315 296.871,543.645C296.393,543.959 295.964,544.315 295.531,544.637C295.093,544.955 294.695,545.295 294.306,545.619C293.913,545.935 293.561,546.262 293.211,546.565C292.861,546.865 292.537,547.162 292.239,547.444C291.636,548.009 291.117,548.51 290.698,548.934C289.855,549.777 289.394,550.287 289.394,550.287Z" style="fill:white;fill-rule:nonzero;"/>
    </g>
    <g transform="matrix(0.379828,0,0,0.379828,-14.6324,-90.5397)">
        <path d="M319.506,540.02C319.506,540.02 320.469,540.992 322.077,542.248C322.875,542.878 323.838,543.571 324.898,544.266C325.425,544.612 325.992,544.944 326.554,545.287C327.139,545.596 327.712,545.945 328.319,546.23C328.923,546.517 329.514,546.826 330.125,547.063C330.728,547.318 331.32,547.566 331.911,547.748C332.492,547.953 333.058,548.141 333.607,548.266C334.153,548.403 334.658,548.563 335.143,548.627C335.62,548.71 336.058,548.787 336.445,548.858C336.836,548.89 337.175,548.918 337.455,548.943C338.012,548.988 338.331,549.016 338.331,549.016L338.047,551.75C338.047,551.75 337.69,551.676 337.068,551.545C336.76,551.48 336.383,551.397 335.955,551.301C335.534,551.174 335.061,551.026 334.547,550.869C334.027,550.728 333.497,550.49 332.929,550.267C332.355,550.053 331.776,549.777 331.183,549.482C330.581,549.207 329.988,548.866 329.394,548.521C328.786,548.194 328.208,547.793 327.623,547.417C327.037,547.044 326.491,546.61 325.936,546.215C325.401,545.792 324.869,545.384 324.376,544.961C323.391,544.123 322.511,543.302 321.792,542.567C320.339,541.108 319.506,540.02 319.506,540.02Z" style="fill:white;fill-rule:nonzero;"/>
    </g>
    <g transform="matrix(0.379828,0,0,0.379828,-14.6324,-90.5397)">
        <path d="M292.513,540.02C292.513,540.02 291.802,541.068 290.547,542.499C289.917,543.215 289.161,544.033 288.291,544.86C287.867,545.285 287.392,545.679 286.924,546.108C286.436,546.508 285.944,546.923 285.428,547.315C284.899,547.684 284.397,548.101 283.847,548.428C283.307,548.77 282.782,549.128 282.233,549.405C281.691,549.701 281.172,549.999 280.643,550.215C280.121,550.436 279.64,550.693 279.159,550.838C278.684,551 278.245,551.151 277.857,551.283C277.461,551.394 277.108,551.468 276.819,551.536C276.238,551.672 275.906,551.749 275.906,551.749L275.591,549.02C275.591,549.02 275.88,548.99 276.386,548.942C276.639,548.914 276.951,548.899 277.306,548.849C277.659,548.78 278.055,548.701 278.492,548.614C278.933,548.55 279.389,548.377 279.888,548.242C280.387,548.117 280.893,547.909 281.427,547.709C281.965,547.525 282.494,547.257 283.043,547.009C283.6,546.774 284.123,546.448 284.671,546.165C285.208,545.863 285.732,545.532 286.253,545.213C286.753,544.864 287.267,544.546 287.734,544.192C288.682,543.509 289.532,542.813 290.242,542.195C291.666,540.962 292.513,540.02 292.513,540.02Z" style="fill:white;fill-rule:nonzero;"/>
    </g>
    <g transform="matrix(0.379828,0,0,0.379828,-14.6324,-90.5397)">
        <path d="M287.044,505.981L329.311,506.066L287.13,508.729L287.044,505.981Z" style="fill:white;fill-rule:nonzero;"/>
    </g>
    <g transform="matrix(0.379828,0,0,0.379828,-14.6324,-90.5397)">
        <path d="M248.697,509.25C248.697,509.25 249.165,509.352 249.995,509.467C250.41,509.526 250.907,509.616 251.489,509.665C252.07,509.723 252.724,509.789 253.434,509.861C254.149,509.92 254.925,509.943 255.745,509.99C256.562,510.039 257.423,510.084 258.321,510.062C259.213,510.055 260.138,510.051 261.071,510.048C262.01,510.055 262.962,509.942 263.911,509.892C264.86,509.83 265.806,509.766 266.742,509.707C267.669,509.582 268.582,509.462 269.466,509.346C270.345,509.227 271.198,509.113 272.005,509.006C272.817,508.922 273.564,508.704 274.263,508.578C277.042,507.998 278.896,507.612 278.896,507.612L279.324,509.633C279.324,509.633 277.407,509.897 274.53,510.298C273.806,510.378 273.038,510.543 272.207,510.576C271.378,510.631 270.503,510.69 269.6,510.746C268.7,510.807 267.765,510.864 266.82,510.928C265.87,510.927 264.903,510.924 263.938,510.924C262.976,510.906 262.014,510.957 261.069,510.885C260.122,510.828 259.191,510.768 258.292,510.713C257.39,510.674 256.526,510.57 255.705,510.467C254.887,510.367 254.109,510.289 253.398,510.185C252.688,510.063 252.039,509.951 251.462,509.853C250.886,509.765 250.388,509.641 249.977,509.554C249.157,509.384 248.697,509.25 248.697,509.25Z" style="fill:white;fill-rule:nonzero;"/>
    </g>
    <g transform="matrix(0.379828,0,0,0.379828,-14.6324,-90.5397)">
        <path d="M449.417,584.243C449.417,584.243 449.366,584.073 449.268,583.753C449.174,583.422 449.034,582.94 448.858,582.323C448.518,581.113 448.093,579.389 447.63,577.316C447.427,576.272 447.166,575.152 446.966,573.953C446.752,572.756 446.532,571.497 446.36,570.184C446.154,568.877 446.014,567.516 445.873,566.134C445.705,564.759 445.672,563.339 445.566,561.94C445.514,560.529 445.504,559.12 445.494,557.739C445.566,556.351 445.573,554.992 445.696,553.678C445.856,552.366 445.926,551.1 446.146,549.91C446.377,548.725 446.548,547.605 446.792,546.586C447.076,545.578 447.335,544.654 447.565,543.836C447.779,543.019 448.128,542.351 448.332,541.781C448.781,540.661 449.039,540.02 449.039,540.02C449.039,540.02 448.874,540.69 448.581,541.861C448.46,542.452 448.21,543.139 448.114,543.972C448,544.798 447.874,545.727 447.735,546.743C447.637,547.761 447.624,548.876 447.559,550.037C447.507,551.201 447.612,552.44 447.632,553.705C447.689,554.975 447.867,556.285 447.98,557.605C448.174,558.927 448.371,560.266 448.607,561.595C448.897,562.921 449.111,564.252 449.456,565.541C449.772,566.833 450.083,568.103 450.453,569.315C450.787,570.535 451.165,571.698 451.523,572.8C451.87,573.905 452.264,574.93 452.59,575.882C453.299,577.772 453.92,579.327 454.386,580.391C454.617,580.908 454.798,581.315 454.921,581.593C455.053,581.877 455.123,582.028 455.123,582.028L449.417,584.243Z" style="fill:white;fill-rule:nonzero;"/>
    </g>
    <g transform="matrix(0.379828,0,0,0.379828,-14.6324,-90.5397)">
        <path d="M385.989,588.081C385.989,588.081 385.766,587.894 385.375,587.566C384.954,587.219 384.397,586.725 383.76,586.137C383.108,585.555 382.398,584.825 381.623,584.076C380.882,583.279 380.073,582.471 379.325,581.599C378.59,580.71 377.811,579.892 377.188,579.012C376.554,578.146 375.926,577.394 375.471,576.669C374.567,575.25 373.962,574.304 373.962,574.304C373.962,574.304 374.84,574.984 376.162,576.005C376.805,576.516 377.652,577.013 378.494,577.585C379.329,578.17 380.323,578.667 381.25,579.22C382.192,579.756 383.182,580.223 384.075,580.686C385.003,581.102 385.843,581.518 386.588,581.816C387.333,582.133 387.939,582.375 388.347,582.518C388.786,582.68 389.035,582.774 389.035,582.774L385.989,588.081Z" style="fill:white;fill-rule:nonzero;"/>
    </g>
    <g transform="matrix(0.379828,0,0,0.379828,-14.6324,-90.5397)">
        <path d="M487.018,616.116C487.018,616.116 487.332,620.758 486.498,622.585C485.666,624.412 484.066,628.963 485.836,629.392C486.924,629.657 507.492,633.996 506.164,628.674C502.686,614.748 497.174,611.604 493.639,608.276C490.102,604.944 487.018,616.116 487.018,616.116Z" style="fill:rgb(85,86,86);fill-rule:nonzero;"/>
    </g>
    <g transform="matrix(0.379828,0,0,0.379828,-14.6324,-90.5397)">
        <path d="M482.947,466.066C482.947,466.066 480.713,468.845 479.568,468.501C478.424,468.155 473.607,465.022 473.732,463.788C473.998,461.103 487.498,448.691 488.668,448.691C491.104,448.687 495.426,452.68 496.344,454.089C497.258,455.499 496.35,455.296 495.777,456.558C495.205,457.816 482.947,466.066 482.947,466.066Z" style="fill:rgb(85,86,86);fill-rule:nonzero;"/>
    </g>
    <g transform="matrix(0.379828,0,0,0.379828,-14.6324,-90.5397)">
        <path d="M366.665,582.988C366.665,582.988 366.426,590.543 365.624,591.33C364.688,592.249 349.51,594.954 348.923,597.694C348.335,600.434 348.923,602.391 348.923,602.391L369.559,602.391C370.458,602.391 372.615,601.143 372.615,601.143L372.615,602.391L380.737,602.391C380.737,602.391 380.719,589.71 380.618,585.33C380.525,581.368 372.338,579.661 366.665,582.988Z" style="fill:rgb(85,86,86);fill-rule:nonzero;"/>
    </g>
    <g transform="matrix(0.379828,0,0,0.379828,-14.6324,-90.5397)">
        <path d="M461.024,496.662L430.592,497.496L460.552,492.097L461.024,496.662Z" style="fill:white;fill-rule:nonzero;"/>
    </g>
    <g transform="matrix(0.379828,0,0,0.379828,-14.6324,-90.5397)">
        <path d="M449.524,440.418C449.524,440.418 449.351,441.277 449.047,442.778C448.75,444.284 448.341,446.433 447.91,449.023C447.434,451.606 447.02,454.643 446.536,457.886C446.272,459.502 446.116,461.193 445.905,462.899C445.708,464.608 445.506,466.343 445.305,468.077C445.172,469.818 445.037,471.557 444.905,473.271C444.796,474.984 444.59,476.664 444.569,478.298C444.529,479.927 444.49,481.503 444.453,482.998C444.431,484.493 444.347,485.904 444.381,487.203C444.627,492.383 444.79,495.837 444.79,495.837L441.737,496.038C441.737,496.038 441.762,492.487 441.8,487.163C441.836,485.835 442,484.406 442.106,482.894C442.226,481.384 442.352,479.79 442.483,478.14C442.595,476.49 442.895,474.808 443.099,473.087C443.327,471.372 443.556,469.629 443.786,467.886C444.083,466.153 444.381,464.423 444.675,462.718C444.979,461.015 445.229,459.333 445.579,457.726C446.246,454.5 446.823,451.487 447.441,448.931C448.014,446.363 448.54,444.235 448.918,442.749C449.305,441.265 449.524,440.418 449.524,440.418Z" style="fill:white;fill-rule:nonzero;"/>
    </g>
    <g transform="matrix(0.379828,0,0,0.379828,-14.6324,-90.5397)">
        <path d="M417.09,452.263C417.09,452.263 417.096,452.86 417.106,453.905C417.101,454.423 417.115,455.053 417.149,455.777C417.177,456.501 417.204,457.318 417.237,458.207C417.279,459.094 417.326,460.057 417.375,461.073C417.394,462.089 417.517,463.161 417.568,464.271C417.685,466.485 417.862,468.846 418.074,471.204C418.167,472.385 418.206,473.57 418.352,474.728C418.461,475.889 418.569,477.032 418.674,478.138C418.765,479.245 418.851,480.319 418.935,481.336C419.042,482.35 419.143,483.308 419.237,484.193C419.42,485.966 419.507,487.455 419.598,488.493C419.676,489.535 419.699,490.134 419.699,490.134C419.699,490.134 419.541,489.558 419.305,488.541C419.083,487.525 418.721,486.073 418.367,484.321C417.975,482.571 417.616,480.515 417.336,478.294C417.188,477.184 417.036,476.038 416.88,474.874C416.718,473.708 416.658,472.515 416.549,471.324C416.468,470.136 416.385,468.944 416.307,467.771C416.235,466.597 416.254,465.435 416.225,464.318C416.16,462.077 416.272,459.983 416.363,458.194C416.401,457.3 416.513,456.482 416.584,455.757C416.652,455.032 416.73,454.401 416.812,453.883C416.955,452.845 417.09,452.263 417.09,452.263Z" style="fill:white;fill-rule:nonzero;"/>
    </g>
    <g transform="matrix(0.379828,0,0,0.379828,-14.6324,-90.5397)">
        <path d="M412.256,414.154C412.879,413.101 418.809,416.895 418.021,417.908C417.231,418.92 408.65,435.825 407.789,436.798C406.928,437.77 400.692,431.805 401.703,430.573C402.716,429.34 410.091,417.815 412.256,414.154Z" style="fill:rgb(85,86,86);fill-rule:nonzero;"/>
    </g>
    <g transform="matrix(0.379828,0,0,0.379828,-14.6324,-90.5397)">
        <path d="M499.445,452.833C499.445,452.833 499.424,452.892 499.377,452.999C499.34,453.094 499.227,453.321 499.109,453.562C498.99,453.825 498.832,454.091 498.646,454.362C498.457,454.637 498.273,454.98 498.018,455.284C497.764,455.593 497.49,455.929 497.203,456.283C496.922,456.644 496.557,456.946 496.219,457.298C495.863,457.628 495.539,458.015 495.131,458.316C494.736,458.628 494.336,458.944 493.936,459.263C493.539,459.579 493.145,459.894 492.713,460.144C492.293,460.407 491.883,460.667 491.482,460.919C490.705,461.447 489.928,461.842 489.252,462.163C487.924,462.823 487.037,463.263 487.037,463.263C487.037,463.263 487.818,462.662 488.99,461.761C489.582,461.324 490.254,460.799 490.9,460.146C491.23,459.835 491.57,459.513 491.918,459.185C492.275,458.873 492.588,458.505 492.898,458.138C493.207,457.776 493.518,457.413 493.822,457.058C494.139,456.714 494.357,456.306 494.619,455.953C494.854,455.584 495.129,455.259 495.301,454.903C495.484,454.558 495.66,454.232 495.818,453.93C495.988,453.634 496.064,453.344 496.174,453.101C496.281,452.847 496.352,452.644 496.379,452.505C496.416,452.343 496.453,452.265 496.475,452.138C496.5,452.025 496.514,451.966 496.514,451.966L499.445,452.833Z" style="fill:white;fill-rule:nonzero;"/>
    </g>
    <g transform="matrix(0.379828,0,0,0.379828,-14.6324,-90.5397)">
        <path d="M465.771,462.37L456.173,452.263L467.756,460.04L465.771,462.37Z" style="fill:white;fill-rule:nonzero;"/>
    </g>
    <g transform="matrix(0.379828,0,0,0.379828,-14.6324,-90.5397)">
        <path d="M411.513,445.679C411.513,445.679 411.649,445.493 411.889,445.169C412.125,444.846 412.476,444.38 412.918,443.823C413.353,443.271 413.861,442.624 414.404,441.931C414.96,441.251 415.584,440.556 416.192,439.849C416.813,439.151 417.382,438.425 418.004,437.806C418.626,437.193 419.207,436.622 419.702,436.132C420.689,435.162 421.347,434.516 421.347,434.516C421.347,434.516 420.835,435.285 420.069,436.441C419.691,437.011 419.249,437.681 418.775,438.394C418.306,439.107 417.896,439.941 417.441,440.73C417.002,441.532 416.546,442.318 416.154,443.076C415.779,443.839 415.429,444.55 415.127,445.158C414.826,445.76 414.582,446.278 414.416,446.651C414.249,447.015 414.153,447.228 414.153,447.228L411.513,445.679Z" style="fill:white;fill-rule:nonzero;"/>
    </g>
    <g transform="matrix(0.379828,0,0,0.379828,-14.6324,-90.5397)">
        <path d="M230.529,590.223C229.459,575.703 229.889,571.603 228.743,561.524C227.599,551.443 222.566,557.739 213.802,553.357C203.27,548.09 192.598,543.805 190.993,544.49C189.39,545.18 186.274,562.09 172.757,566.213C159.241,570.337 152.879,579.133 144.404,591.275C135.924,603.417 126.729,609.518 124.667,614.558C122.606,619.598 128.561,627.387 118.481,625.785C108.398,624.181 106.772,618.781 110.667,614.428C114.562,610.074 125.814,579.735 136.579,562.551C147.348,545.367 148.059,534.371 149.204,527.955C150.349,521.542 149.868,512.716 152.848,498.797C155.824,484.884 156.97,482.591 154.221,474.343C151.473,466.096 148.521,458.536 144.852,453.21C135.92,440.247 140.474,427.834 151.473,426.231C162.47,424.629 164.072,425.773 166.594,416.38C169.114,406.985 165.677,405.61 173.925,397.134C182.172,388.658 196.002,403.737 194.913,411.313C193.57,420.633 185.15,425.084 185.15,425.084C185.15,425.084 196.857,437.331 196.857,445.241C196.857,453.921 199.128,458.764 197.292,473.426C195.46,488.091 198.318,490.152 198.379,494.276C198.438,498.401 198.9,503.441 201.648,505.274C204.398,507.108 204.761,515.573 213.439,520.241C227.341,527.717 231.49,529.514 237.303,531.988C245.055,535.29 245.112,590.223 245.112,590.223C247.017,601.81 231.377,601.756 230.529,590.223Z" style="fill:rgb(85,86,86);fill-rule:nonzero;"/>
    </g>
    <g transform="matrix(0.379828,0,0,0.379828,-14.6324,-90.5397)">
        <path d="M193.917,447.085C193.917,447.085 205.711,435.753 213.996,424.531C222.281,413.312 233.191,404.163 228.322,401.606C226.515,400.658 223.81,397.497 206.665,390.236C201.013,387.841 198.156,383.579 194.85,380.859C191.669,378.234 187.122,382.27 186.596,384.776C186.067,387.282 202.922,396.689 207.304,402.925C211.689,409.166 208.91,405.228 199.922,411.308C192.817,416.116 185.059,423.249 177.697,428.155C171.306,432.419 187.765,444.579 193.917,447.085Z" style="fill:rgb(85,86,86);fill-rule:nonzero;"/>
    </g>
    <g transform="matrix(0.379828,0,0,0.379828,-14.6324,-90.5397)">
        <path d="M197.598,381.739C197.598,381.739 194.791,377.513 192.276,377.525C190.775,377.531 190.871,378.166 190.377,378.098C188.785,377.871 188.742,378.787 188.115,378.672C186.141,378.306 186.268,379.775 184.918,379.597C182.666,379.302 183.032,382.086 183.089,383.511C183.151,384.932 186.579,386.048 183.717,386.278C180.853,386.505 181.075,388.599 184.598,388.155C188.119,387.71 190.805,387.621 192.618,389.467C194.428,391.311 200,388.307 198.8,385.023L197.598,381.739Z" style="fill:rgb(85,86,86);fill-rule:nonzero;"/>
    </g>
    <g transform="matrix(0.379828,0,0,0.379828,-14.6324,-90.5397)">
        <path d="M151.802,512.677C151.802,512.677 161.16,559.36 158.726,581.274C156.29,603.19 164.21,581.616 189.635,578.37C215.057,575.125 230.428,588.825 237.303,570.385C242.94,555.262 214.098,521.076 199.031,511.408C183.964,501.739 157.822,495.278 151.802,512.677Z" style="fill:rgb(85,86,86);fill-rule:nonzero;"/>
    </g>
    <g transform="matrix(0.379828,0,0,0.379828,-14.6324,-90.5397)">
        <path d="M151.468,581.821C151.468,581.821 151.529,581.712 151.645,581.508C151.775,581.285 151.889,581.044 152.072,580.697C152.439,580.062 152.912,578.923 153.501,577.625C153.759,576.948 154.04,576.213 154.334,575.437C154.652,574.664 154.928,573.826 155.191,572.947C155.467,572.068 155.751,571.162 156.041,570.239C156.274,569.299 156.512,568.342 156.75,567.386C156.974,566.424 157.244,565.465 157.429,564.507C157.597,563.542 157.763,562.594 157.922,561.677C158.084,560.755 158.239,559.862 158.386,559.016C158.519,558.167 158.57,557.36 158.656,556.611C158.963,553.611 159.168,551.61 159.168,551.61C159.168,551.61 159.347,553.62 159.612,556.632C159.669,557.39 159.773,558.212 159.805,559.081C159.819,559.953 159.836,560.872 159.854,561.822C159.871,562.781 159.887,563.768 159.904,564.774C159.903,565.778 159.819,566.796 159.778,567.82C159.723,568.847 159.668,569.873 159.614,570.885C159.499,571.895 159.386,572.888 159.276,573.851C159.178,574.818 159.057,575.751 158.882,576.631C158.726,577.518 158.578,578.356 158.442,579.127C158.071,580.68 157.814,581.942 157.492,582.921C157.348,583.385 157.235,583.751 157.16,584C157.084,584.224 157.044,584.345 157.044,584.345L151.468,581.821Z" style="fill:white;fill-rule:nonzero;"/>
    </g>
    <g transform="matrix(0.379828,0,0,0.379828,-14.6324,-90.5397)">
        <path d="M124.247,616.316C124.247,616.316 123.934,620.958 124.768,622.785C125.6,624.613 127.2,629.164 125.43,629.593C124.341,629.858 103.772,634.195 105.1,628.873C108.581,614.948 114.09,611.805 117.628,608.475C121.164,605.144 124.247,616.316 124.247,616.316Z" style="fill:rgb(85,86,86);fill-rule:nonzero;"/>
    </g>
    <g transform="matrix(0.379828,0,0,0.379828,-14.6324,-90.5397)">
        <path d="M140.194,441.247C140.194,441.247 140.194,426.202 148.076,418.284C149.936,416.415 169.589,420.572 169.589,420.572C169.589,420.572 161.125,437.137 159.697,443.609C158.269,450.079 157.292,457.253 151.803,459.335C146.314,461.421 140.194,441.247 140.194,441.247Z" style="fill:rgb(85,86,86);fill-rule:nonzero;"/>
    </g>
    <g transform="matrix(0.379828,0,0,0.379828,-14.6324,-90.5397)">
        <path d="M159.297,425.853C153.771,424.684 148.293,419.892 147.997,412.925C147.698,405.955 148.879,405.421 146.106,401.577C143.335,397.729 141.055,394.318 138.998,392.568C136.751,390.659 135.729,391.193 132.735,389.914C128.918,388.283 133.544,387.77 131.702,384.886C130.505,383.014 133.205,380.808 135.174,381.627C135.174,381.627 137.081,379.474 139.146,380.566C139.146,380.566 140.887,378.85 142.849,380.721C142.849,380.721 145.018,379.214 146.64,383.127C148.506,387.626 146.98,387.596 151.614,392.336C156.244,397.074 166.732,406.662 168.364,412.513C169.993,418.363 171.413,418.989 169.542,421.019C168.132,422.549 167.374,427.559 159.297,425.853Z" style="fill:rgb(85,86,86);fill-rule:nonzero;"/>
    </g>
    <g transform="matrix(0.379828,0,0,0.379828,-14.6324,-90.5397)">
        <path d="M152.183,416.945C152.183,416.945 148.946,415.452 148.071,416.268C147.201,417.089 144.288,422.04 144.948,423.089C146.382,425.376 163.995,430.475 165.043,429.954C167.227,428.872 169.318,423.372 169.511,421.701C169.705,420.033 168.979,420.616 167.907,419.744C166.832,418.871 152.183,416.945 152.183,416.945Z" style="fill:rgb(85,86,86);fill-rule:nonzero;"/>
    </g>
    <g transform="matrix(0.379828,0,0,0.379828,-14.6324,-90.5397)">
        <path d="M244.601,582.793C244.601,582.793 244.84,590.348 245.642,591.135C246.577,592.054 261.755,594.759 262.343,597.498C262.93,600.238 262.343,602.195 262.343,602.195L241.707,602.195C240.807,602.195 238.651,600.947 238.651,600.947L238.651,602.195L230.529,602.195C230.529,602.195 230.548,589.515 230.647,585.135C230.74,581.173 238.927,579.466 244.601,582.793Z" style="fill:rgb(85,86,86);fill-rule:nonzero;"/>
    </g>
    <g transform="matrix(0.379828,0,0,0.379828,-14.6324,-90.5397)">
        <path d="M97.746,383.938C97.497,384.207 97.365,384.557 97.376,384.922L97.487,388.212C97.51,388.968 98.146,389.565 98.902,389.54L198.567,386.236C199.322,386.209 199.916,385.577 199.893,384.818L199.781,381.526C199.758,380.773 199.12,380.178 198.366,380.203L98.703,383.507C98.336,383.519 97.997,383.67 97.746,383.938Z" style="fill:rgb(85,86,86);fill-rule:nonzero;"/>
    </g>
    <g transform="matrix(0.379828,0,0,0.379828,-14.6324,-90.5397)">
        <path d="M99.317,374.041L100.127,398.589C100.167,399.615 101.027,400.426 102.052,400.392L112.025,400.059C113.052,400.025 113.858,399.162 113.825,398.133L113.01,373.585C112.975,372.558 112.114,371.753 111.086,371.785L101.116,372.117C100.09,372.153 99.283,373.013 99.317,374.041Z" style="fill:rgb(85,86,86);fill-rule:nonzero;"/>
    </g>
    <g transform="matrix(0.379828,0,0,0.379828,-14.6324,-90.5397)">
        <path d="M198.312,410.262C198.312,410.262 198.222,410.451 198.066,410.78C197.905,411.124 197.669,411.603 197.377,412.155C196.807,413.272 195.968,414.719 195.081,416.123C194.604,416.808 194.163,417.506 193.692,418.126C193.207,418.739 192.779,419.317 192.377,419.786C191.538,420.686 190.978,421.285 190.978,421.285C190.978,421.285 191.378,420.578 191.981,419.518C192.257,418.979 192.536,418.324 192.852,417.643C193.155,416.954 193.417,416.186 193.709,415.445C194.228,413.924 194.685,412.394 194.965,411.232C195.116,410.65 195.222,410.175 195.291,409.847C195.363,409.504 195.404,409.308 195.404,409.308L198.312,410.262Z" style="fill:white;fill-rule:nonzero;"/>
    </g>
    <g transform="matrix(0.379828,0,0,0.379828,-14.6324,-90.5397)">
        <path d="M199.894,409.785C201.247,408.484 203.552,410.993 206.995,412.493C210.437,413.993 217.626,420.556 216.97,421.634C214.926,424.985 212.788,427.958 210.877,428.985C209.565,429.691 197.158,414.618 197.158,414.618C197.158,414.618 194.322,415.14 199.894,409.785Z" style="fill:rgb(85,86,86);fill-rule:nonzero;"/>
    </g>
    <g transform="matrix(0.379828,0,0,0.379828,-14.6324,-90.5397)">
        <path d="M198.642,491.594C198.642,491.594 198.163,491.429 197.411,491.246C196.662,491.026 195.524,490.792 194.143,490.522C193.459,490.36 192.699,490.295 191.901,490.177C191.1,490.083 190.257,489.917 189.376,489.868C188.495,489.816 187.582,489.761 186.656,489.704C185.725,489.618 184.782,489.63 183.837,489.671C182.889,489.695 181.94,489.72 181.008,489.745C180.065,489.728 179.167,489.944 178.279,490.025C177.393,490.14 176.537,490.248 175.724,490.351C174.902,490.421 174.153,490.615 173.46,490.794C170.667,491.483 168.806,491.941 168.806,491.941C168.806,491.941 170.619,491.297 173.338,490.331C174.019,490.083 174.758,489.81 175.574,489.657C176.384,489.47 177.239,489.274 178.122,489.069C179.011,488.898 179.917,488.587 180.868,488.509C181.817,488.39 182.782,488.265 183.746,488.142C184.711,488.005 185.681,487.896 186.641,487.888C187.602,487.851 188.548,487.815 189.463,487.778C190.381,487.739 191.266,487.82 192.109,487.834C192.95,487.874 193.75,487.866 194.484,487.962C195.952,488.1 197.183,488.228 198.07,488.394C198.966,488.526 199.409,488.634 199.409,488.634L198.642,491.594Z" style="fill:white;fill-rule:nonzero;"/>
    </g>
    <g transform="matrix(0.379828,0,0,0.379828,-14.6324,-90.5397)">
        <path d="M193.524,437.336C193.525,437.336 194.021,440.523 194.507,445.335C194.792,447.737 194.976,450.554 195.251,453.569C195.339,455.082 195.429,456.644 195.52,458.228C195.602,459.816 195.732,461.43 195.744,463.047C195.781,464.663 195.818,466.28 195.854,467.87C195.873,468.667 195.891,469.457 195.908,470.237C195.894,471.017 195.878,471.79 195.864,472.548C195.773,475.583 195.822,478.425 195.63,480.852C195.276,485.717 195.041,488.962 195.041,488.962L192.008,488.556C192.008,488.556 192.427,485.39 193.057,480.642C193.388,478.267 193.505,475.463 193.774,472.47C193.833,471.72 193.893,470.958 193.954,470.187C193.981,469.413 194.01,468.63 194.039,467.841C194.096,466.264 194.155,464.658 194.214,463.054C194.298,461.448 194.264,459.843 194.277,458.26C194.279,456.678 194.282,455.118 194.284,453.611C194.188,450.601 194.173,447.779 194.03,445.37C193.831,440.545 193.525,437.336 193.524,437.336Z" style="fill:white;fill-rule:nonzero;"/>
    </g>
    <g transform="matrix(0.379828,0,0,0.379828,-14.6324,-90.5397)">
        <path d="M171.744,447.085C171.744,447.085 172.339,449.726 173.083,453.721C173.482,455.715 173.864,458.053 174.306,460.556C174.534,461.806 174.706,463.109 174.917,464.427C175.115,465.747 175.317,467.089 175.519,468.431C175.688,469.78 175.857,471.124 176.025,472.452C176.179,473.78 176.385,475.081 176.48,476.355C176.594,477.625 176.706,478.853 176.813,480.019C176.908,481.185 177.043,482.286 177.085,483.308C177.266,487.408 177.384,490.142 177.384,490.142L174.325,490.079C174.325,490.079 174.397,487.402 174.505,483.388C174.534,482.382 174.477,481.29 174.464,480.134C174.442,478.978 174.418,477.761 174.392,476.499C174.389,475.235 174.275,473.935 174.216,472.607C174.143,471.282 174.07,469.936 173.997,468.589C173.89,467.243 173.784,465.898 173.68,464.571C173.564,463.248 173.485,461.94 173.347,460.683C173.083,458.162 172.867,455.805 172.61,453.794C172.151,449.761 171.744,447.085 171.744,447.085Z" style="fill:white;fill-rule:nonzero;"/>
    </g>
    <g transform="matrix(0.379828,0,0,0.379828,-14.6324,-90.5397)">
        <path d="M152.602,426.784C152.602,426.784 153.463,427.053 154.774,427.384C156.081,427.734 157.842,428.119 159.603,428.456C160.49,428.588 161.372,428.745 162.202,428.848C163.033,428.927 163.806,429.017 164.468,429.067C165.783,429.097 166.662,429.116 166.662,429.116L166.62,430.646C166.62,430.646 165.699,430.527 164.319,430.348C163.639,430.225 162.856,430.048 162.017,429.878C161.183,429.682 160.306,429.428 159.428,429.199C157.688,428.67 155.969,428.1 154.703,427.613C153.43,427.142 152.602,426.784 152.602,426.784Z" style="fill:white;fill-rule:nonzero;"/>
    </g>
    <g transform="matrix(0.379828,0,0,0.379828,-14.6324,-90.5397)">
        <path d="M169.009,423.629C169.009,423.629 168.946,424.781 168.523,426.434C168.341,427.267 168.033,428.212 167.684,429.218C167.345,430.228 166.843,431.252 166.39,432.295C165.832,433.291 165.306,434.304 164.702,435.191C164.066,436.058 163.467,436.862 162.898,437.501C161.654,438.715 160.754,439.396 160.754,439.396C160.754,439.396 161.286,438.352 162.19,436.982C162.586,436.245 163.025,435.38 163.546,434.496C163.813,434.057 164,433.546 164.265,433.075C164.515,432.594 164.767,432.105 165.021,431.615C165.995,429.622 166.97,427.629 167.702,426.133C168.456,424.635 169.01,423.629 169.009,423.629Z" style="fill:white;fill-rule:nonzero;"/>
    </g>
    <g transform="matrix(0.379828,0,0,0.379828,-14.6324,-90.5397)">
        <path d="M167.401,404.62C167.401,404.62 167.476,404.818 167.606,405.168C167.741,405.529 167.925,406.041 168.123,406.646C168.537,407.859 169.01,409.496 169.423,411.139C169.6,411.973 169.806,412.79 169.939,413.574C170.059,414.362 170.193,415.085 170.265,415.711C170.364,416.965 170.43,417.802 170.43,417.802C170.43,417.802 170.177,417.008 169.799,415.82C169.589,415.236 169.297,414.568 169.011,413.854C168.713,413.142 168.332,412.406 167.987,411.665C167.231,410.201 166.431,408.773 165.78,407.734C165.461,407.208 165.189,406.786 164.998,406.5C164.799,406.2 164.687,406.031 164.687,406.031L167.401,404.62Z" style="fill:white;fill-rule:nonzero;"/>
    </g>
    <g transform="matrix(0.379828,0,0,0.379828,-14.6324,-90.5397)">
        <path d="M148.007,414.004C148.007,414.004 148.132,414.109 148.353,414.293C148.562,414.471 148.88,414.717 149.282,415.009C149.67,415.313 150.166,415.607 150.678,415.957C151.214,416.259 151.777,416.618 152.372,416.908C152.973,417.174 153.555,417.524 154.149,417.708C154.737,417.908 155.278,418.159 155.767,418.264C156.75,418.497 157.404,418.651 157.404,418.651C157.404,418.651 156.729,418.591 155.718,418.498C155.207,418.461 154.636,418.289 154.004,418.171C153.367,418.066 152.736,417.799 152.072,417.613C151.419,417.401 150.792,417.119 150.188,416.881C149.611,416.597 149.05,416.362 148.598,416.105C148.141,415.863 147.758,415.645 147.491,415.478C147.233,415.317 147.086,415.226 147.086,415.226L148.007,414.004Z" style="fill:white;fill-rule:nonzero;"/>
    </g>
    <g transform="matrix(0.379828,0,0,0.379828,-14.6324,-90.5397)">
        <path d="M201.1,407.767C201.1,407.767 203.614,409.289 206.004,410.973C207.203,411.81 208.364,412.708 209.191,413.426C209.622,413.763 209.914,414.13 210.146,414.345C210.369,414.571 210.496,414.701 210.496,414.701C210.496,414.701 210.352,414.589 210.1,414.393C209.839,414.209 209.517,413.893 209.045,413.616C208.14,413.018 206.891,412.291 205.604,411.627C203.036,410.28 200.394,409.125 200.394,409.125L201.1,407.767Z" style="fill:white;fill-rule:nonzero;"/>
    </g>
    <g transform="matrix(0.379828,0,0,0.379828,-14.6324,-90.5397)">
        <path d="M203.363,424.926C203.363,424.926 203.94,425.268 204.838,425.712C205.289,425.933 205.798,426.214 206.365,426.472C206.936,426.726 207.543,426.999 208.15,427.269C209.346,427.846 210.62,428.243 211.542,428.602C212.469,428.944 213.088,429.173 213.088,429.173L212.51,430.589C212.51,430.589 211.913,430.267 211.018,429.782C210.134,429.282 208.917,428.7 207.795,427.946C207.227,427.59 206.66,427.23 206.127,426.894C205.598,426.553 205.125,426.197 204.711,425.913C203.883,425.345 203.363,424.926 203.363,424.926Z" style="fill:white;fill-rule:nonzero;"/>
    </g>
    <g transform="matrix(0.379828,0,0,0.379828,-14.6324,-90.5397)">
        <path d="M222.475,582.846C222.475,582.846 222.564,582.817 222.733,582.762C222.918,582.693 223.191,582.591 223.537,582.461C224.24,582.186 225.25,581.753 226.433,581.16C228.791,579.981 231.873,578.128 234.304,575.595C235.523,574.338 236.574,572.915 237.274,571.425C237.626,570.684 237.923,569.93 238.099,569.188C238.211,568.819 238.283,568.453 238.334,568.094C238.405,567.736 238.451,567.386 238.462,567.047C238.589,565.686 238.422,564.53 238.298,563.724C238.124,562.921 238.023,562.463 238.023,562.463C238.023,562.463 238.216,562.895 238.552,563.651C238.839,564.426 239.254,565.564 239.419,567.022C239.479,567.385 239.507,567.765 239.513,568.164C239.537,568.564 239.54,568.976 239.503,569.401C239.476,570.256 239.324,571.154 239.101,572.068C238.661,573.905 237.805,575.768 236.725,577.465C234.566,580.898 231.579,583.643 229.234,585.501C228.055,586.432 227.023,587.151 226.273,587.64C225.889,587.882 225.586,588.073 225.381,588.203C225.153,588.336 225.032,588.408 225.032,588.408L222.475,582.846Z" style="fill:white;fill-rule:nonzero;"/>
    </g>
    <g transform="matrix(0.379828,0,0,0.379828,-14.6324,-90.5397)">
        <path d="M197.092,447.177L195.333,430.921L200.091,446.565L197.092,447.177Z" style="fill:white;fill-rule:nonzero;"/>
    </g>
    <g transform="matrix(0.379828,0,0,0.379828,-14.6324,-90.5397)">
        <path d="M109.028,374.124C107.711,374.31 106.396,374.408 105.079,374.533C103.763,374.635 102.448,374.701 101.131,374.766L101.772,374.108C101.991,377.447 102.084,380.79 102.095,384.134C102.093,385.806 102.063,387.479 101.995,389.154C101.96,389.992 101.921,390.828 101.851,391.666C101.788,392.503 101.738,393.342 101.637,394.18C101.493,393.348 101.4,392.514 101.295,391.68C101.184,390.846 101.102,390.012 101.025,389.179C100.872,387.509 100.759,385.841 100.674,384.171C100.515,380.829 100.44,377.487 100.49,374.141L100.492,374.084C100.496,373.746 100.774,373.478 101.111,373.484L101.131,373.484C102.448,373.548 103.763,373.614 105.079,373.716C106.396,373.84 107.711,373.94 109.028,374.124Z" style="fill:white;fill-rule:nonzero;"/>
    </g>
    <g transform="matrix(0.379828,0,0,0.379828,-14.6324,-90.5397)">
        <path d="M471.789,403.839C471.736,402.02 471.928,400.254 472.184,398.5C472.451,396.748 472.807,395.013 473.271,393.302L473.291,393.231C473.381,392.905 473.705,392.708 474.031,392.769C474.912,392.936 475.789,393.141 476.66,393.373C477.533,393.601 478.4,393.862 479.258,394.194C478.342,394.274 477.434,394.284 476.535,394.262C475.631,394.244 474.732,394.194 473.84,394.111L474.602,393.577C474.35,395.333 473.988,397.065 473.541,398.778C473.08,400.491 472.559,402.19 471.789,403.839Z" style="fill:white;fill-rule:nonzero;"/>
    </g>
</svg>
