<?xml version="1.0" encoding="UTF-8" standalone="no"?>
<!DOCTYPE svg PUBLIC "-//W3C//DTD SVG 1.1//EN" "http://www.w3.org/Graphics/SVG/1.1/DTD/svg11.dtd">
<svg width="100%" height="100%" viewBox="0 0 200 200" version="1.1" xmlns="http://www.w3.org/2000/svg" xmlns:xlink="http://www.w3.org/1999/xlink" xml:space="preserve" xmlns:serif="http://www.serif.com/" style="fill-rule:evenodd;clip-rule:evenodd;stroke-linecap:round;stroke-linejoin:round;stroke-miterlimit:1.5;">
    <g transform="matrix(0.969349,0,0,0.969349,2.59759,3.06506)">
        <g id="Background">
            <circle cx="100" cy="100" r="100" style="fill:none;stroke:rgb(85,86,86);stroke-width:5.16px;"/>
        </g>
    </g>
    <g transform="matrix(0.946623,0,0,0.946623,-262.784,-737.429)">
        <path d="M464.369,862.742L464.369,849.633C464.369,849.254 464.062,848.947 463.683,848.947L362.981,848.947C362.602,848.947 362.295,849.254 362.295,849.633L362.295,853.002L351.729,853.002C351.35,853.002 351.043,853.308 351.043,853.687L351.043,854.488L294.379,854.488C291.638,854.488 316.658,881.562 350.015,881.562L351.043,881.562L351.043,882.591C351.043,882.97 351.35,883.276 351.729,883.276L363.776,883.276C368.791,887.025 374.831,893.752 368.579,901.554C364.855,906.2 354.356,907.209 354.356,907.209L345.617,916.804L345.617,928.801L365.836,928.801C365.836,928.801 371.492,924.346 373.376,923.488C375.261,922.631 381.602,920.404 390.684,920.404C390.723,920.404 390.758,920.397 390.796,920.395C390.834,920.397 390.87,920.404 390.909,920.404C399.991,920.404 406.332,922.631 408.216,923.488C410.101,924.346 415.756,928.801 415.756,928.801L435.976,928.801L435.976,916.804L427.237,907.209C427.237,907.209 414.294,906.449 410.905,901.554C401.697,888.256 417.77,865.058 463.684,863.449C464.063,863.436 464.369,863.121 464.369,862.742Z" style="fill:rgb(85,86,86);fill-rule:nonzero;"/>
    </g>
    <g transform="matrix(0.946623,0,0,0.946623,-261.784,-741.429)">
        <path d="M350.693,876.767L347.069,853.724L351.059,853.443L350.693,876.767Z" style="fill:white;fill-rule:nonzero;"/>
    </g>
    <g transform="matrix(0.946623,0,0,0.946623,-261.784,-741.429)">
        <path d="M362.218,864.235L358.326,851.196L362.285,850.628L362.218,864.235Z" style="fill:white;fill-rule:nonzero;"/>
    </g>
    <g transform="matrix(0.946623,0,0,0.946623,-261.784,-741.429)">
        <path d="M365.237,917.404C365.237,917.404 365.361,917.187 365.594,916.782C365.837,916.382 366.177,915.781 366.675,915.061C367.166,914.337 367.767,913.454 368.532,912.501C369.28,911.533 370.161,910.463 371.205,909.368C372.233,908.26 373.398,907.093 374.746,905.978C375.414,905.413 376.101,904.832 376.86,904.301C377.235,904.029 377.614,903.756 377.997,903.478C378.393,903.221 378.81,902.981 379.222,902.728C379.639,902.482 380.05,902.219 380.482,901.981C380.927,901.763 381.375,901.543 381.826,901.322C382.709,900.84 383.69,900.517 384.67,900.179L385.407,899.927L386.176,899.755L387.725,899.414C388.238,899.28 388.785,899.298 389.315,899.234L390.117,899.17L390.519,899.138L390.72,899.123L390.82,899.115L390.845,899.113L390.981,899.118L391.027,899.121L392.508,899.245C393.011,899.301 393.468,899.287 394.031,899.438C395.092,899.697 396.234,899.86 397.171,900.263C397.659,900.442 398.145,900.62 398.628,900.797C399.11,900.976 399.543,901.244 399.998,901.462C400.445,901.692 400.89,901.922 401.331,902.148C401.748,902.411 402.162,902.672 402.572,902.93C403.405,903.43 404.171,903.986 404.896,904.563C405.645,905.109 406.306,905.722 406.964,906.299C408.278,907.454 409.413,908.651 410.408,909.791C411.417,910.918 412.268,912.012 412.986,913.003C413.72,913.98 414.298,914.877 414.764,915.619C415.24,916.352 415.562,916.965 415.792,917.371C416.013,917.784 416.13,918.005 416.13,918.005C416.13,918.005 415.48,917.244 414.291,915.982C413.702,915.347 412.966,914.596 412.115,913.751C411.265,912.905 410.278,911.981 409.186,911.006C408.631,910.526 408.073,910.008 407.447,909.531C406.828,909.045 406.226,908.502 405.542,908.029C404.871,907.54 404.198,907.016 403.456,906.571C402.725,906.107 402.004,905.6 401.21,905.195C400.823,904.977 400.432,904.759 400.038,904.538C399.629,904.355 399.218,904.172 398.803,903.987C397.986,903.584 397.123,903.309 396.26,903.013C395.39,902.654 394.554,902.593 393.704,902.369C393.312,902.244 392.768,902.257 392.286,902.212L390.803,902.111L389.551,902.197C389.1,902.245 388.641,902.208 388.195,902.322L386.853,902.595L386.183,902.728L385.53,902.942C384.666,903.24 383.786,903.471 382.961,903.865C382.543,904.043 382.127,904.22 381.715,904.394C381.309,904.59 380.918,904.814 380.523,905.02C380.132,905.232 379.736,905.43 379.355,905.65C378.98,905.882 378.608,906.112 378.241,906.339C377.489,906.769 376.793,907.262 376.115,907.74C375.42,908.198 374.795,908.716 374.167,909.188C373.529,909.649 372.95,910.144 372.385,910.612C371.811,911.069 371.298,911.551 370.792,911.991C370.279,912.426 369.813,912.859 369.376,913.271C368.499,914.09 367.744,914.821 367.135,915.437C365.908,916.663 365.237,917.404 365.237,917.404Z" style="fill:white;fill-rule:nonzero;"/>
    </g>
    <g transform="matrix(0.946623,0,0,0.946623,-261.784,-741.429)">
        <path d="M409.047,902.468C409.047,902.468 410.449,903.884 412.788,905.707C413.95,906.626 415.352,907.636 416.892,908.643C417.66,909.15 418.481,909.631 419.303,910.13C420.154,910.581 420.988,911.089 421.869,911.504C422.748,911.923 423.607,912.373 424.497,912.715C425.373,913.086 426.235,913.443 427.095,913.711C427.943,914.012 428.765,914.283 429.563,914.467C430.356,914.667 431.093,914.895 431.797,914.989C432.492,915.111 433.128,915.223 433.693,915.323C434.26,915.372 434.755,915.414 435.162,915.449C435.972,915.517 436.434,915.557 436.434,915.557L436.022,919.536C436.022,919.536 435.504,919.427 434.599,919.235C434.149,919.138 433.603,919.019 432.977,918.883C432.368,918.695 431.681,918.482 430.931,918.251C430.176,918.046 429.403,917.701 428.576,917.376C427.741,917.067 426.898,916.665 426.037,916.232C425.162,915.831 424.3,915.34 423.432,914.835C422.548,914.359 421.711,913.778 420.859,913.23C420.004,912.686 419.21,912.054 418.401,911.483C417.623,910.865 416.851,910.271 416.136,909.659C414.702,908.437 413.421,907.242 412.372,906.173C410.259,904.049 409.047,902.468 409.047,902.468Z" style="fill:white;fill-rule:nonzero;"/>
    </g>
    <g transform="matrix(0.946623,0,0,0.946623,-261.784,-741.429)">
        <path d="M369.776,902.468C369.776,902.468 368.741,903.991 366.913,906.076C365.998,907.116 364.896,908.307 363.632,909.508C363.016,910.127 362.321,910.702 361.643,911.324C360.933,911.908 360.215,912.513 359.466,913.08C358.697,913.618 357.967,914.222 357.167,914.701C356.379,915.198 355.617,915.72 354.817,916.125C354.031,916.552 353.276,916.986 352.507,917.3C351.745,917.622 351.047,917.997 350.345,918.206C349.651,918.443 349.015,918.661 348.452,918.854C347.876,919.015 347.361,919.121 346.941,919.224C346.096,919.421 345.613,919.533 345.613,919.533L345.154,915.56C345.154,915.56 345.575,915.519 346.311,915.448C346.679,915.409 347.132,915.383 347.648,915.313C348.162,915.213 348.742,915.098 349.374,914.973C350.018,914.88 350.68,914.625 351.405,914.432C352.135,914.249 352.871,913.945 353.646,913.654C354.43,913.386 355.198,912.999 355.996,912.637C356.806,912.295 357.565,911.819 358.365,911.41C359.147,910.971 359.909,910.488 360.666,910.023C361.395,909.516 362.145,909.054 362.82,908.538C364.202,907.544 365.435,906.53 366.471,905.634C368.542,903.837 369.776,902.468 369.776,902.468Z" style="fill:white;fill-rule:nonzero;"/>
    </g>
    <g transform="matrix(0.946623,0,0,0.946623,-261.784,-741.429)">
        <path d="M361.82,852.946L423.309,853.068L361.942,856.944L361.82,852.946Z" style="fill:white;fill-rule:nonzero;"/>
    </g>
    <g transform="matrix(0.946623,0,0,0.946623,-261.784,-741.429)">
        <path d="M306.026,857.703C306.026,857.703 306.708,857.851 307.915,858.016C308.518,858.101 309.244,858.233 310.09,858.304C310.933,858.389 311.883,858.486 312.92,858.593C313.958,858.674 315.089,858.711 316.279,858.778C317.47,858.846 318.724,858.914 320.027,858.88C321.326,858.873 322.669,858.867 324.033,858.86C325.396,858.87 326.779,858.706 328.161,858.637C329.541,858.545 330.92,858.454 332.278,858.364C333.628,858.185 334.956,858.009 336.241,857.838C337.524,857.667 338.763,857.502 339.939,857.345C341.118,857.221 342.205,856.906 343.222,856.721C347.268,855.881 349.964,855.319 349.964,855.319L350.585,858.255C350.585,858.255 347.795,858.642 343.609,859.223C342.561,859.342 341.442,859.583 340.23,859.63C339.025,859.709 337.753,859.793 336.438,859.88C335.125,859.964 333.769,860.052 332.391,860.14C331.01,860.138 329.606,860.138 328.203,860.136C326.801,860.112 325.402,860.182 324.024,860.08C322.649,859.994 321.295,859.91 319.985,859.828C318.675,859.774 317.416,859.621 316.223,859.471C315.03,859.324 313.902,859.21 312.866,859.058C311.833,858.882 310.887,858.721 310.048,858.577C309.208,858.45 308.486,858.268 307.89,858.143C306.695,857.896 306.026,857.703 306.026,857.703Z" style="fill:white;fill-rule:nonzero;"/>
    </g>
</svg>
