<?xml version="1.0" encoding="UTF-8" standalone="no"?>
<!DOCTYPE svg PUBLIC "-//W3C//DTD SVG 1.1//EN" "http://www.w3.org/Graphics/SVG/1.1/DTD/svg11.dtd">
<svg width="100%" height="100%" viewBox="0 0 200 200" version="1.1" xmlns="http://www.w3.org/2000/svg" xmlns:xlink="http://www.w3.org/1999/xlink" xml:space="preserve" xmlns:serif="http://www.serif.com/" style="fill-rule:evenodd;clip-rule:evenodd;stroke-linecap:round;stroke-linejoin:round;stroke-miterlimit:1.5;">
    <g transform="matrix(0.969349,0,0,0.969349,2.59759,3.06506)">
        <g id="Background">
            <circle cx="100" cy="100" r="100" style="fill:none;stroke:rgb(85,86,86);stroke-width:5.16px;"/>
        </g>
    </g>
    <g transform="matrix(1.04377,0,0,1.04377,-58.559,-15.6733)">
        <path d="M179.936,152.345C180.843,153.36 181.608,154.344 182.255,155.236C182.916,156.115 183.436,156.923 183.855,157.59C184.284,158.251 184.573,158.802 184.781,159.168C184.979,159.54 185.085,159.738 185.085,159.738C185.085,159.738 184.5,159.053 183.43,157.918C182.899,157.347 182.237,156.671 181.472,155.909C180.706,155.148 179.817,154.317 178.835,153.438C178.336,153.007 177.834,152.54 177.27,152.111C176.713,151.674 176.171,151.184 175.556,150.759C174.951,150.319 174.346,149.847 173.677,149.447C173.02,149.029 172.371,148.573 171.657,148.208C171.308,148.013 170.956,147.816 170.602,147.617C170.233,147.452 169.863,147.287 169.49,147.121C168.755,146.758 167.978,146.51 167.202,146.245C166.419,145.921 165.666,145.865 164.9,145.665C164.547,145.551 164.058,145.563 163.624,145.523L162.29,145.432L161.162,145.509C160.757,145.552 160.344,145.519 159.942,145.622L158.734,145.867L158.131,145.987L157.544,146.18C156.766,146.448 155.975,146.656 155.232,147.011C154.856,147.171 154.481,147.33 154.109,147.487C153.745,147.663 153.394,147.865 153.037,148.05C152.686,148.242 152.329,148.42 151.986,148.617C151.648,148.826 151.313,149.033 150.983,149.237C150.307,149.625 149.681,150.067 149.07,150.499C148.444,150.911 147.883,151.376 147.316,151.801C146.742,152.217 146.222,152.663 145.713,153.083C145.195,153.495 144.735,153.928 144.279,154.324C143.817,154.715 143.398,155.106 143.004,155.476C142.215,156.213 141.535,156.872 140.988,157.426C139.884,158.529 139.279,159.196 139.279,159.196C139.279,159.196 139.391,159.002 139.601,158.636C139.82,158.276 140.126,157.735 140.574,157.088C141.016,156.435 141.556,155.641 142.246,154.783C142.919,153.912 143.711,152.949 144.65,151.964C145.576,150.966 146.625,149.915 147.839,148.912C148.438,148.404 149.058,147.88 149.74,147.402C150.078,147.159 150.419,146.912 150.764,146.663C151.12,146.43 151.496,146.215 151.867,145.988C152.242,145.766 152.611,145.529 153.001,145.316C153.401,145.119 153.805,144.921 154.21,144.721C155.005,144.287 155.888,143.997 156.77,143.693L157.434,143.466L158.126,143.311L159.52,143.004C159.981,142.883 160.474,142.9 160.951,142.843L161.672,142.785L162.034,142.756L162.215,142.742L162.305,142.735L162.328,142.734L162.45,142.738L162.491,142.741L163.825,142.852C164.276,142.902 164.688,142.891 165.195,143.027C166.15,143.259 167.178,143.406 168.021,143.77C168.461,143.93 168.897,144.09 169.332,144.249C169.767,144.412 170.156,144.652 170.565,144.848C170.968,145.055 171.368,145.261 171.766,145.466C172.141,145.703 172.513,145.938 172.883,146.171C173.632,146.62 174.322,147.12 174.975,147.639C175.647,148.131 176.242,148.683 176.835,149.202C178.019,150.242 179.039,151.32 179.936,152.345ZM227.885,97.583L137.249,97.583C136.908,97.583 136.632,97.858 136.632,98.199L136.632,101.182L191.547,101.291L136.594,104.762L136.562,111.343L133.544,101.232L127.122,101.232C126.799,101.232 126.543,101.481 126.516,101.796L126.505,102.469L126.505,102.569L126.503,102.569L126.188,122.622L123.622,106.302C122.601,106.443 121.308,106.623 119.813,106.831C118.869,106.937 117.862,107.155 116.772,107.197C115.687,107.269 114.542,107.343 113.358,107.422C112.177,107.498 110.957,107.577 109.716,107.656C108.473,107.655 107.21,107.654 105.947,107.652C104.685,107.63 103.425,107.694 102.186,107.602C100.947,107.525 99.729,107.449 98.55,107.375C97.372,107.326 96.238,107.189 95.165,107.054C94.091,106.922 93.075,106.819 92.142,106.682C91.213,106.524 90.362,106.379 89.607,106.249C88.851,106.134 88.201,105.971 87.665,105.859C86.588,105.637 85.986,105.463 85.986,105.463C85.986,105.463 86.6,105.596 87.686,105.745C88.229,105.821 88.882,105.94 89.644,106.003C90.402,106.081 91.258,106.168 92.191,106.263C93.127,106.337 94.143,106.37 95.214,106.43C96.286,106.492 97.416,106.552 98.587,106.522C99.757,106.516 100.966,106.51 102.193,106.504C103.421,106.513 104.665,106.365 105.908,106.303C107.15,106.221 108.393,106.139 109.615,106.058C110.829,105.897 112.024,105.738 113.182,105.585C114.336,105.43 115.452,105.281 116.509,105.14C117.57,105.028 118.549,104.745 119.464,104.579C120.949,104.27 122.229,104.005 123.228,103.797L123.034,102.569L75.504,102.569C73.036,102.569 95.554,126.937 125.578,126.937L126.505,126.937L126.505,127.863C126.505,128.205 126.78,128.481 127.122,128.481L137.965,128.481C142.477,131.854 147.914,137.908 142.287,144.931C138.935,149.113 129.485,150.02 129.485,150.02L122.775,157.387C122.983,157.369 123.208,157.348 123.448,157.315C123.911,157.224 124.433,157.121 125.003,157.009C125.582,156.925 126.178,156.695 126.831,156.522C127.486,156.357 128.149,156.084 128.845,155.822C129.552,155.58 130.244,155.232 130.963,154.906C131.691,154.598 132.375,154.17 133.095,153.802C133.799,153.407 134.483,152.973 135.166,152.554C135.821,152.098 136.496,151.681 137.104,151.217C138.348,150.322 139.458,149.41 140.391,148.603C142.255,146.986 143.364,145.754 143.364,145.754C143.364,145.754 142.433,147.125 140.788,149.001C139.964,149.937 138.973,151.009 137.835,152.09C137.28,152.648 136.654,153.165 136.044,153.725C135.406,154.25 134.76,154.795 134.086,155.305C133.394,155.789 132.736,156.333 132.016,156.764C131.307,157.212 130.621,157.68 129.901,158.045C129.192,158.429 128.514,158.82 127.822,159.103C127.136,159.393 126.507,159.73 125.876,159.919C125.251,160.132 124.679,160.328 124.172,160.502C123.653,160.647 123.19,160.741 122.813,160.835C122.058,161.01 121.627,161.111 121.619,161.112L121.619,169.454L139.819,169.454C139.819,169.454 144.908,165.444 146.604,164.672C148.301,163.901 154.009,161.897 162.183,161.897C162.218,161.897 162.25,161.891 162.283,161.889C162.318,161.891 162.35,161.897 162.385,161.897C170.56,161.897 176.266,163.901 177.962,164.672C179.658,165.444 184.749,169.454 184.749,169.454L202.947,169.454L202.947,161.107C202.85,161.086 202.424,160.996 201.708,160.844C201.304,160.756 200.812,160.65 200.248,160.527C199.699,160.359 199.081,160.167 198.406,159.959C197.727,159.775 197.031,159.464 196.286,159.172C195.535,158.893 194.776,158.531 194.002,158.142C193.214,157.781 192.438,157.339 191.657,156.885C190.861,156.456 190.108,155.933 189.342,155.44C188.572,154.951 187.857,154.383 187.129,153.868C186.429,153.312 185.733,152.777 185.09,152.226C183.8,151.127 182.646,150.051 181.703,149.089C179.801,147.176 178.711,145.754 178.711,145.754C178.711,145.754 179.972,147.028 182.077,148.669C183.123,149.496 184.385,150.405 185.771,151.313C186.462,151.768 187.201,152.2 187.94,152.65C188.707,153.056 189.457,153.513 190.25,153.887C191.041,154.263 191.814,154.669 192.616,154.976C193.404,155.311 194.18,155.632 194.954,155.873C195.718,156.143 196.457,156.388 197.176,156.553C197.89,156.733 198.552,156.939 199.186,157.023C199.811,157.133 200.384,157.234 200.892,157.324C201.23,157.352 201.526,157.378 201.805,157.401L195.082,150.02C195.082,150.02 183.433,149.337 180.383,144.931C172.094,132.962 186.562,112.083 227.887,110.634C228.228,110.624 228.502,110.339 228.502,109.998L228.502,98.199C228.502,97.858 228.226,97.583 227.885,97.583Z" style="fill:rgb(85,86,86);fill-rule:nonzero;"/>
    </g>
    <g transform="matrix(1.04377,0,0,1.04377,-58.559,-15.6733)">
        <path d="M122.063,62.905C121.72,63.248 121.53,63.703 121.53,64.188L121.53,68.545C121.53,69.545 122.346,70.358 123.346,70.359L201.019,70.358C202.019,70.358 202.834,69.545 202.834,68.544L202.834,64.188C202.833,63.187 202.019,62.374 201.018,62.374L123.346,62.374C122.86,62.374 122.404,62.563 122.063,62.905Z" style="fill:rgb(85,86,86);fill-rule:nonzero;"/>
    </g>
    <g transform="matrix(1.04377,0,0,1.04377,-58.559,-15.6733)">
        <path d="M133.82,68.275L184.816,68.82L133.82,69.365L133.82,68.275Z" style="fill:white;fill-rule:nonzero;"/>
    </g>
    <g transform="matrix(1.04377,0,0,1.04377,-58.559,-15.6733)">
        <path d="M122.739,54.094L122.739,79.169C122.739,80.216 123.592,81.07 124.64,81.07L134.826,81.07C135.875,81.07 136.727,80.216 136.727,79.169L136.727,54.094C136.727,53.045 135.875,52.192 134.826,52.192L124.64,52.192C123.592,52.192 122.737,53.045 122.739,54.094Z" style="fill:rgb(85,86,86);fill-rule:nonzero;"/>
    </g>
    <g transform="matrix(1.04377,0,0,1.04377,-58.559,-15.6733)">
        <path d="M123.002,80.119C123.054,80.093 123.117,80.062 123.198,80.023C123.302,79.97 123.427,79.907 123.57,79.837C123.717,79.77 123.87,79.673 124.058,79.609C124.244,79.538 124.444,79.46 124.657,79.379C124.765,79.339 124.873,79.297 124.986,79.254C125.1,79.214 125.22,79.184 125.341,79.151C125.582,79.082 125.831,79.01 126.086,78.937C126.347,78.885 126.61,78.833 126.874,78.778C127.14,78.717 127.408,78.685 127.675,78.653C127.94,78.625 128.203,78.574 128.457,78.566C128.715,78.551 128.962,78.536 129.197,78.522C129.433,78.507 129.654,78.518 129.86,78.515C130.067,78.516 130.257,78.507 130.427,78.52C130.593,78.527 130.741,78.534 130.864,78.541C131.105,78.551 131.244,78.56 131.244,78.56C131.244,78.56 131.108,78.53 130.871,78.478C130.754,78.453 130.608,78.421 130.444,78.386C130.28,78.348 130.09,78.325 129.884,78.288C129.677,78.258 129.453,78.211 129.214,78.186C128.973,78.161 128.72,78.135 128.459,78.108C128.197,78.071 127.924,78.079 127.647,78.063C127.369,78.052 127.087,78.04 126.804,78.056C126.648,78.063 126.493,78.068 126.34,78.071C126.324,78.049 126.312,78.029 126.293,78.001C126.234,77.919 126.164,77.757 126.081,77.602C125.992,77.446 125.911,77.253 125.826,77.038C125.743,76.822 125.633,76.597 125.552,76.337C125.469,76.081 125.382,75.81 125.293,75.528C125.193,75.249 125.124,74.949 125.049,74.645C124.975,74.339 124.898,74.03 124.82,73.719C124.734,73.41 124.697,73.091 124.636,72.78C124.577,72.469 124.521,72.162 124.467,71.867C124.413,71.569 124.356,71.282 124.328,71.006C124.293,70.731 124.262,70.471 124.23,70.232C124.108,69.268 124.027,68.625 124.027,68.625C124.027,68.625 124.019,69.274 124.005,70.245C124.001,70.489 123.998,70.753 123.992,71.031C123.982,71.313 123.999,71.606 124.01,71.911C124.024,72.216 124.035,72.531 124.049,72.852C124.068,73.173 124.06,73.502 124.103,73.828C124.137,74.154 124.17,74.481 124.203,74.802C124.235,75.125 124.263,75.441 124.325,75.749C124.378,76.055 124.429,76.354 124.478,76.635C124.525,76.919 124.607,77.184 124.666,77.43C124.726,77.678 124.785,77.904 124.863,78.107C124.877,78.144 124.886,78.173 124.898,78.209C124.846,78.214 124.791,78.219 124.738,78.228C124.611,78.254 124.486,78.279 124.366,78.304C124.121,78.353 123.893,78.4 123.68,78.444C123.464,78.481 123.279,78.557 123.106,78.604C122.967,78.647 122.847,78.683 122.739,78.715L122.739,79.169C122.739,79.517 122.839,79.837 123.002,80.119Z" style="fill:white;fill-rule:nonzero;"/>
    </g>
    <g transform="matrix(1.04377,0,0,1.04377,-58.559,-15.6733)">
        <path d="M122.739,54.094L122.739,54.545C122.847,54.579 122.967,54.615 123.106,54.658C123.279,54.705 123.464,54.779 123.679,54.817C123.893,54.861 124.122,54.909 124.366,54.959C124.486,54.983 124.611,55.008 124.738,55.033C124.791,55.042 124.846,55.047 124.898,55.053C124.888,55.088 124.877,55.119 124.863,55.155C124.786,55.358 124.726,55.585 124.666,55.832C124.608,56.08 124.525,56.344 124.478,56.628C124.429,56.908 124.378,57.207 124.325,57.514C124.264,57.819 124.235,58.138 124.203,58.461C124.17,58.781 124.137,59.108 124.103,59.435C124.062,59.76 124.066,60.089 124.05,60.409C124.035,60.731 124.022,61.046 124.01,61.351C123.998,61.656 123.982,61.95 123.992,62.23C123.998,62.509 124.001,62.774 124.005,63.017C124.019,63.988 124.027,64.638 124.027,64.638C124.027,64.638 124.109,63.995 124.23,63.032C124.261,62.792 124.293,62.531 124.328,62.255C124.356,61.98 124.414,61.693 124.467,61.396C124.521,61.099 124.577,60.792 124.635,60.482C124.697,60.172 124.734,59.852 124.82,59.543C124.898,59.233 124.975,58.923 125.049,58.617C125.125,58.315 125.193,58.013 125.292,57.733C125.382,57.454 125.469,57.182 125.552,56.924C125.633,56.667 125.743,56.441 125.826,56.226C125.911,56.009 125.992,55.816 126.081,55.66C126.165,55.505 126.234,55.342 126.293,55.26C126.31,55.233 126.324,55.212 126.34,55.189C126.493,55.195 126.648,55.199 126.804,55.206C127.087,55.223 127.369,55.211 127.647,55.198C127.924,55.183 128.197,55.19 128.459,55.154C128.722,55.128 128.973,55.101 129.213,55.076C129.451,55.05 129.677,55.004 129.884,54.974C130.09,54.937 130.279,54.916 130.444,54.875C130.608,54.84 130.754,54.809 130.871,54.783C131.108,54.731 131.244,54.702 131.244,54.702C131.244,54.702 131.105,54.709 130.862,54.721C130.741,54.728 130.593,54.734 130.425,54.743C130.257,54.755 130.067,54.746 129.86,54.748C129.654,54.744 129.434,54.754 129.197,54.739C128.962,54.725 128.715,54.71 128.457,54.694C128.203,54.688 127.94,54.637 127.675,54.609C127.408,54.577 127.14,54.544 126.874,54.483C126.61,54.43 126.347,54.377 126.086,54.324C125.832,54.252 125.582,54.181 125.339,54.111C125.22,54.076 125.1,54.047 124.986,54.008C124.873,53.964 124.765,53.923 124.657,53.882C124.444,53.801 124.244,53.724 124.058,53.654C123.87,53.589 123.717,53.491 123.57,53.424C123.427,53.353 123.302,53.291 123.198,53.24C123.117,53.199 123.054,53.168 123.002,53.143C122.839,53.423 122.739,53.746 122.739,54.094Z" style="fill:white;fill-rule:nonzero;"/>
    </g>
    <g transform="matrix(1.04377,0,0,1.04377,-58.559,-15.6733)">
        <path d="M135.053,76.875C135.053,76.875 134.87,75.595 134.74,73.674C134.709,73.193 134.67,72.673 134.647,72.124C134.621,71.573 134.588,70.993 134.575,70.392C134.56,69.792 134.529,69.172 134.527,68.542C134.521,67.911 134.515,67.272 134.508,66.631C134.514,65.991 134.521,65.351 134.526,64.72C134.526,64.089 134.56,63.469 134.571,62.87C134.61,61.669 134.669,60.548 134.74,59.588C134.869,57.668 135.053,56.386 135.053,56.386C135.053,56.386 135.236,57.668 135.365,59.588C135.435,60.548 135.494,61.669 135.531,62.87C135.546,63.469 135.578,64.089 135.578,64.72C135.584,65.351 135.591,65.991 135.597,66.631C135.59,67.271 135.582,67.911 135.578,68.542C135.575,69.172 135.546,69.792 135.529,70.392C135.517,70.993 135.482,71.573 135.458,72.124C135.435,72.673 135.397,73.193 135.362,73.674C135.233,75.595 135.053,76.875 135.053,76.875Z" style="fill:white;fill-rule:nonzero;"/>
    </g>
</svg>
