<?xml version="1.0" encoding="UTF-8" standalone="no"?>
<!DOCTYPE svg PUBLIC "-//W3C//DTD SVG 1.1//EN" "http://www.w3.org/Graphics/SVG/1.1/DTD/svg11.dtd">
<svg width="100%" height="100%" viewBox="0 0 200 200" version="1.1" xmlns="http://www.w3.org/2000/svg" xmlns:xlink="http://www.w3.org/1999/xlink" xml:space="preserve" xmlns:serif="http://www.serif.com/" style="fill-rule:evenodd;clip-rule:evenodd;stroke-linecap:round;stroke-linejoin:round;stroke-miterlimit:1.5;">
    <g transform="matrix(0.969349,0,0,0.969349,2.59759,3.06506)">
        <g id="Background">
            <circle cx="100" cy="100" r="100" style="fill:none;stroke:rgb(85,86,86);stroke-width:5.16px;"/>
        </g>
    </g>
    <g transform="matrix(0.89664,0,0,0.89664,-634.227,-92.4111)">
        <path d="M759.772,140.122C758.604,140.122 757.504,140.576 756.676,141.404L749.249,148.832C747.542,150.538 747.542,153.314 749.249,155.021L881.706,287.477C883.412,289.184 886.188,289.184 887.895,287.477L895.323,280.05C897.028,278.343 897.028,275.566 895.321,273.86L762.866,141.404C762.04,140.578 760.94,140.123 759.772,140.122Z" style="fill:rgb(85,86,86);fill-rule:nonzero;"/>
    </g>
    <g transform="matrix(0.89664,0,0,0.89664,-634.227,-92.4111)">
        <path d="M770.667,169.333L856.701,257.223L768.809,171.19L770.667,169.333Z" style="fill:white;fill-rule:nonzero;"/>
    </g>
    <g transform="matrix(0.89664,0,0,0.89664,-634.227,-92.4111)">
        <path d="M775.952,126.248L733.19,169.01C731.403,170.797 731.403,173.706 733.19,175.494L750.562,192.865C752.35,194.653 755.259,194.653 757.047,192.865L799.807,150.104C801.596,148.316 801.595,145.408 799.807,143.619L782.436,126.248C780.648,124.46 777.739,124.46 775.952,126.248Z" style="fill:rgb(85,86,86);fill-rule:nonzero;"/>
    </g>
    <g transform="matrix(0.89664,0,0,0.89664,-634.227,-92.4111)">
        <path d="M732.021,171.078C732.153,171.123 732.315,171.177 732.522,171.248C732.785,171.337 733.103,171.444 733.468,171.567C733.83,171.703 734.263,171.802 734.692,172.01C735.129,172.206 735.602,172.418 736.104,172.641C736.356,172.755 736.616,172.87 736.879,172.988C737.139,173.116 737.393,173.27 737.659,173.414C738.189,173.709 738.736,174.014 739.293,174.324C739.827,174.679 740.368,175.038 740.911,175.396C741.466,175.745 741.979,176.147 742.487,176.548C742.988,176.953 743.521,177.314 743.971,177.737C744.434,178.148 744.883,178.545 745.308,178.922C745.733,179.3 746.096,179.693 746.454,180.04C746.802,180.394 747.141,180.703 747.41,181.012C747.682,181.313 747.921,181.577 748.118,181.794C748.51,182.227 748.734,182.475 748.734,182.475C748.734,182.475 748.553,182.194 748.237,181.702C748.079,181.456 747.886,181.158 747.666,180.815C747.454,180.468 747.167,180.105 746.875,179.692C746.577,179.287 746.272,178.824 745.908,178.375C745.542,177.924 745.155,177.448 744.756,176.956C744.368,176.45 743.892,175.997 743.447,175.496C742.995,175 742.532,174.496 742.021,174.043C741.746,173.788 741.473,173.535 741.2,173.279C741.213,173.215 741.226,173.156 741.243,173.083C741.284,172.841 741.44,172.443 741.561,172.039C741.676,171.622 741.869,171.153 742.092,170.639C742.319,170.13 742.514,169.558 742.817,168.981C743.114,168.4 743.428,167.79 743.754,167.156C744.061,166.512 744.456,165.882 744.847,165.234C745.24,164.586 745.637,163.927 746.036,163.266C746.417,162.595 746.897,161.986 747.319,161.35C747.752,160.722 748.18,160.104 748.593,159.506C749.007,158.907 749.4,158.319 749.822,157.802C750.232,157.273 750.62,156.773 750.977,156.312C752.413,154.462 753.371,153.229 753.371,153.229C753.371,153.229 752.249,154.318 750.567,155.951C750.146,156.359 749.69,156.804 749.206,157.272C748.709,157.732 748.237,158.262 747.737,158.802C747.238,159.344 746.721,159.903 746.197,160.473C745.682,161.053 745.11,161.6 744.627,162.226C744.126,162.841 743.625,163.455 743.135,164.059C742.641,164.665 742.145,165.255 741.729,165.881C741.295,166.497 740.875,167.091 740.478,167.655C740.075,168.217 739.766,168.812 739.442,169.333C739.124,169.855 738.838,170.345 738.625,170.821C738.585,170.908 738.55,170.975 738.512,171.054C738.411,170.975 738.309,170.89 738.207,170.817C737.946,170.643 737.69,170.474 737.442,170.309C736.941,169.977 736.467,169.666 736.032,169.377C735.599,169.075 735.155,168.888 734.784,168.674C734.472,168.508 734.204,168.365 733.963,168.236L733.19,169.01C732.598,169.601 732.221,170.321 732.021,171.078Z" style="fill:white;fill-rule:nonzero;"/>
    </g>
    <g transform="matrix(0.89664,0,0,0.89664,-634.227,-92.4111)">
        <path d="M775.952,126.248L775.18,127.019C775.309,127.26 775.452,127.528 775.618,127.839C775.83,128.211 776.018,128.655 776.32,129.088C776.609,129.524 776.92,129.999 777.252,130.499C777.417,130.746 777.586,131.002 777.76,131.263C777.834,131.365 777.918,131.468 777.999,131.568C777.918,131.607 777.85,131.643 777.764,131.682C777.288,131.895 776.799,132.18 776.275,132.5C775.755,132.825 775.159,133.133 774.597,133.536C774.034,133.931 773.439,134.353 772.823,134.786C772.198,135.203 771.608,135.699 771.002,136.192C770.397,136.683 769.784,137.184 769.169,137.684C768.543,138.167 767.995,138.74 767.416,139.255C766.846,139.778 766.287,140.295 765.745,140.795C765.204,141.294 764.674,141.767 764.215,142.263C763.747,142.748 763.302,143.203 762.893,143.625C761.26,145.306 760.171,146.429 760.171,146.429C760.171,146.429 761.405,145.471 763.254,144.035C763.716,143.677 764.215,143.29 764.745,142.879C765.262,142.457 765.85,142.065 766.448,141.651C767.047,141.236 767.665,140.81 768.292,140.376C768.928,139.956 769.538,139.473 770.209,139.093C770.87,138.695 771.528,138.298 772.177,137.904C772.824,137.514 773.454,137.118 774.099,136.811C774.731,136.487 775.343,136.172 775.923,135.875C776.5,135.571 777.073,135.377 777.583,135.15C778.096,134.926 778.565,134.734 778.981,134.618C779.385,134.499 779.784,134.341 780.025,134.3C780.099,134.283 780.159,134.271 780.224,134.256C780.478,134.53 780.731,134.802 780.987,135.077C781.44,135.589 781.944,136.051 782.439,136.503C782.939,136.95 783.393,137.426 783.899,137.812C784.391,138.213 784.866,138.599 785.317,138.965C785.768,139.328 786.23,139.635 786.634,139.933C787.049,140.223 787.411,140.51 787.758,140.722C788.1,140.944 788.399,141.136 788.645,141.294C789.137,141.61 789.418,141.792 789.418,141.792C789.418,141.792 789.17,141.566 788.737,141.174C788.52,140.978 788.256,140.739 787.955,140.466C787.646,140.198 787.338,139.859 786.983,139.511C786.637,139.153 786.243,138.791 785.865,138.364C785.489,137.939 785.09,137.49 784.68,137.027C784.257,136.578 783.896,136.045 783.491,135.543C783.09,135.037 782.688,134.522 782.34,133.967C781.98,133.425 781.622,132.883 781.267,132.349C780.958,131.794 780.651,131.246 780.358,130.715C780.213,130.45 780.059,130.196 779.932,129.936C779.813,129.672 779.698,129.412 779.584,129.161C779.361,128.659 779.149,128.186 778.953,127.748C778.745,127.321 778.647,126.886 778.51,126.525C778.387,126.159 778.281,125.841 778.192,125.578C778.123,125.37 778.068,125.21 778.023,125.077C777.265,125.278 776.545,125.655 775.952,126.248Z" style="fill:white;fill-rule:nonzero;"/>
    </g>
    <g transform="matrix(0.89664,0,0,0.89664,-634.227,-92.4111)">
        <path d="M758.102,186.096C758.102,186.096 759.975,183.601 763.03,180.106C763.792,179.23 764.616,178.28 765.514,177.303C766.407,176.319 767.339,175.272 768.341,174.226C769.34,173.179 770.346,172.068 771.417,170.99C772.481,169.905 773.561,168.803 774.642,167.7C775.745,166.617 776.848,165.537 777.932,164.471C779.007,163.397 780.12,162.394 781.167,161.395C783.28,159.413 785.29,157.602 787.047,156.085C790.542,153.03 793.04,151.158 793.04,151.158C793.04,151.158 791.167,153.655 788.114,157.15C786.596,158.909 784.785,160.919 782.802,163.031C781.803,164.078 780.8,165.19 779.725,166.265C778.661,167.35 777.581,168.453 776.498,169.555C775.395,170.636 774.292,171.718 773.208,172.781C772.129,173.851 771.019,174.858 769.971,175.856C768.925,176.858 767.878,177.79 766.895,178.683C765.917,179.582 764.967,180.406 764.09,181.168C760.596,184.223 758.102,186.096 758.102,186.096Z" style="fill:white;fill-rule:nonzero;"/>
    </g>
    <g transform="matrix(0.89664,0,0,0.89664,-634.227,-92.4111)">
        <path d="M869.268,185.311C868.03,182.526 871.589,180.205 877.315,177.265C883.04,174.325 887.62,176.951 894.749,169.822C905.244,159.327 886.773,145.044 889.848,149.567C892.479,153.435 895.569,159.548 889.693,164.576C884.792,168.776 879.807,166.52 876.69,163.271C876.585,163.164 876.433,163.156 876.252,163.203C876.386,163.419 876.519,163.643 876.628,163.888C876.713,164.065 876.803,164.251 876.896,164.441C876.97,164.64 877.047,164.845 877.125,165.054C877.299,165.467 877.385,165.936 877.517,166.4C877.588,166.88 877.695,167.365 877.708,167.869C877.757,168.37 877.719,168.879 877.706,169.38C877.639,169.881 877.593,170.379 877.464,170.855C877.375,171.337 877.194,171.787 877.053,172.224C876.856,172.643 876.708,173.06 876.482,173.417C876.377,173.597 876.279,173.775 876.181,173.945C876.067,174.104 875.959,174.26 875.853,174.406C875.655,174.708 875.432,174.953 875.239,175.171C875.053,175.394 874.876,175.576 874.719,175.712C874.415,175.994 874.242,176.155 874.242,176.155C874.242,176.155 874.384,175.967 874.633,175.638C874.764,175.48 874.903,175.274 875.044,175.026C875.194,174.784 875.364,174.515 875.502,174.195C875.577,174.04 875.652,173.877 875.733,173.709C875.795,173.535 875.861,173.354 875.927,173.169C876.077,172.806 876.143,172.391 876.256,171.988C876.312,171.566 876.405,171.142 876.407,170.699C876.45,170.263 876.409,169.818 876.392,169.38C876.326,168.943 876.286,168.509 876.165,168.096C876.084,167.678 875.918,167.288 875.793,166.909C875.614,166.548 875.489,166.184 875.285,165.879C875.194,165.723 875.105,165.572 875.018,165.424C874.917,165.288 874.822,165.157 874.729,165.029C874.55,164.763 874.366,164.573 874.208,164.401C874.132,164.316 874.059,164.234 873.994,164.16C873.903,164.074 873.821,163.997 873.745,163.928C873.571,163.765 873.447,163.649 873.366,163.575C873.314,163.556 873.258,163.54 873.194,163.532C873.176,163.381 873.13,163.261 873.045,163.184C872.016,162.263 874.004,160.564 873.456,160.037C870.208,156.92 867.952,151.936 872.149,147.032C877.178,141.159 883.291,144.247 887.159,146.878C891.683,149.954 877.4,131.484 866.905,141.979C859.776,149.108 862.401,153.685 859.461,159.411C856.52,165.137 854.2,168.695 851.414,167.458C848.628,166.22 847.237,165.446 843.832,168.85C840.427,172.255 785.34,222.7 765.534,245.91C745.727,269.121 742.942,270.669 745.881,273.608C748.823,276.549 749.131,277.477 766.462,258.599C783.793,239.721 827.739,197.013 837.641,188.347C847.545,179.682 848.938,181.075 851.414,183.551C851.736,183.873 852.273,183.921 852.958,183.768C852.805,184.453 852.853,184.99 853.174,185.311C855.651,187.788 857.043,189.18 848.378,199.084C839.713,208.986 797.004,252.932 778.126,270.263C759.249,287.594 760.177,287.903 763.117,290.844C766.057,293.784 767.604,290.999 790.815,271.192C814.026,251.386 864.471,196.299 867.875,192.893C871.28,189.49 870.506,188.097 869.268,185.311Z" style="fill:rgb(85,86,86);fill-rule:nonzero;"/>
    </g>
    <g transform="matrix(0.89664,0,0,0.89664,-634.227,-92.4111)">
        <path d="M846.379,171.743C846.379,171.743 845.124,173.037 842.923,175.303C840.721,177.562 837.543,180.756 833.718,184.575C831.805,186.485 829.733,188.554 827.516,190.714C825.309,192.885 822.981,195.174 820.574,197.542C815.734,202.25 810.572,207.271 805.409,212.293C802.814,214.789 800.19,217.256 797.671,219.748C795.149,222.236 792.614,224.631 790.187,226.977C788.968,228.144 787.77,229.293 786.596,230.416C785.435,231.551 784.299,232.661 783.194,233.742C780.993,235.913 778.887,237.944 776.942,239.817C775.967,240.754 775.036,241.651 774.148,242.504C773.283,243.378 772.461,244.207 771.692,244.985C770.144,246.542 768.795,247.899 767.684,249.016C765.434,251.233 764.149,252.5 764.149,252.5C764.149,252.5 765.293,251.107 767.295,248.669C768.309,247.458 769.542,245.987 770.956,244.302C771.668,243.464 772.428,242.571 773.229,241.63C774.063,240.721 774.94,239.767 775.855,238.771C777.685,236.779 779.672,234.624 781.798,232.366C782.86,231.235 783.951,230.075 785.065,228.888C786.206,227.727 787.372,226.542 788.557,225.337C790.94,222.938 793.372,220.429 795.898,217.935C798.402,215.418 801.003,212.924 803.584,210.407C806.19,207.915 808.793,205.422 811.358,202.97C813.924,200.518 816.514,198.174 818.985,195.869C823.94,191.271 828.633,187.056 832.692,183.481C836.729,179.886 840.168,176.967 842.571,174.922C843.767,173.892 844.733,173.114 845.381,172.57C846.033,172.03 846.379,171.743 846.379,171.743Z" style="fill:white;fill-rule:nonzero;"/>
    </g>
    <g transform="matrix(0.89664,0,0,0.89664,-634.227,-92.4111)">
        <path d="M866.78,172.991C866.78,172.991 866.651,173.011 866.426,173.03C866.316,173.049 866.179,173.048 866.012,173.009C865.843,172.987 865.647,172.951 865.465,172.856C865.265,172.787 865.071,172.669 864.881,172.515C864.678,172.377 864.516,172.168 864.35,171.957C864.216,171.722 864.055,171.484 863.996,171.198C863.893,170.907 863.895,170.672 863.875,170.294C863.922,170.038 863.917,169.824 864.044,169.508C864.128,169.197 864.307,168.978 864.454,168.752C864.633,168.553 864.807,168.354 865.02,168.23C865.221,168.088 865.42,167.982 865.626,167.927C865.817,167.845 866.007,167.823 866.172,167.812C866.335,167.787 866.477,167.793 866.594,167.817C866.825,167.851 866.947,167.88 866.947,167.88C866.947,167.88 866.825,167.92 866.612,167.99C866.506,168.012 866.387,168.065 866.258,168.136C866.127,168.197 865.984,168.268 865.848,168.378C865.702,168.468 865.572,168.597 865.44,168.731C865.297,168.854 865.208,169.041 865.084,169.194C864.996,169.374 864.9,169.561 864.859,169.734C864.78,169.874 864.776,170.174 864.741,170.409C864.77,170.528 864.738,170.806 864.812,170.982C864.845,171.186 864.93,171.371 865.006,171.558C865.118,171.719 865.195,171.911 865.331,172.044C865.454,172.186 865.575,172.325 865.715,172.424C865.847,172.543 865.976,172.619 866.1,172.688C866.216,172.765 866.338,172.829 866.45,172.859C866.661,172.938 866.78,172.991 866.78,172.991Z" style="fill:white;fill-rule:nonzero;"/>
    </g>
</svg>
