<?xml version="1.0" encoding="UTF-8" standalone="no"?>
<!DOCTYPE svg PUBLIC "-//W3C//DTD SVG 1.1//EN" "http://www.w3.org/Graphics/SVG/1.1/DTD/svg11.dtd">
<svg width="100%" height="100%" viewBox="0 0 200 200" version="1.1" xmlns="http://www.w3.org/2000/svg" xmlns:xlink="http://www.w3.org/1999/xlink" xml:space="preserve" xmlns:serif="http://www.serif.com/" style="fill-rule:evenodd;clip-rule:evenodd;stroke-linecap:round;stroke-linejoin:round;stroke-miterlimit:1.5;">
    <g transform="matrix(0.969349,0,0,0.969349,2.59759,3.06506)">
        <g id="Background">
            <circle cx="100" cy="100" r="100" style="fill:none;stroke:rgb(85,86,86);stroke-width:5.16px;"/>
        </g>
    </g>
    <g transform="matrix(0.812086,0,0,0.812086,-618.324,-568.144)">
        <path d="M881.792,715.037C887.933,713.867 861.474,710.485 861.474,727.441C861.474,738.96 867.292,740.537 869.542,747.537C871.792,754.537 872.792,759.287 869.542,760.537C866.292,761.787 864.542,762.287 864.542,767.787C864.542,773.287 860.792,858.537 863.542,893.287C866.292,928.037 865.292,931.537 870.042,931.537C874.792,931.537 875.792,932.037 874.542,902.787C873.292,873.537 874.292,803.537 875.292,788.537C876.292,773.537 878.542,773.537 882.542,773.537C886.542,773.537 887.792,750.537 887.792,750.537C887.792,750.537 885.31,739.513 883.564,739.611C881.99,739.699 882.222,736.721 881.353,736.738C876.21,736.844 870.363,734.639 869.792,727.287C869.111,718.479 876.542,716.037 881.792,715.037Z" style="fill:rgb(85,86,86);fill-rule:nonzero;"/>
    </g>
    <g transform="matrix(0.812086,0,0,0.812086,-618.324,-568.144)">
        <path d="M886.138,715.037C880,713.867 906.458,710.485 906.458,727.441C906.458,738.96 900.638,740.537 898.388,747.537C896.138,754.537 895.138,759.287 898.388,760.537C901.638,761.787 903.388,762.287 903.388,767.787C903.388,773.287 907.138,858.537 904.388,893.287C901.638,928.037 902.638,931.537 897.888,931.537C893.138,931.537 892.138,932.037 893.388,902.787C894.638,873.537 893.638,803.537 892.638,788.537C891.638,773.537 889.388,773.537 885.388,773.537C881.388,773.537 880.138,750.537 880.138,750.537C880.138,750.537 882.621,739.513 884.369,739.611C885.941,739.699 885.708,736.721 886.58,736.738C891.722,736.844 897.57,734.639 898.138,727.287C898.822,718.479 891.388,716.037 886.138,715.037Z" style="fill:rgb(85,86,86);fill-rule:nonzero;"/>
    </g>
    <g transform="matrix(0.812086,0,0,0.812086,-618.324,-568.144)">
        <path d="M884.14,736.677C884.14,736.677 884.407,736.714 884.875,736.778C884.992,736.796 885.122,736.813 885.262,736.833C885.428,736.869 885.608,736.908 885.799,736.95C886.183,737.032 886.613,737.127 887.028,737.286C887.24,737.359 887.461,737.436 887.69,737.515C887.911,737.616 888.138,737.72 888.372,737.826C888.845,738.018 889.294,738.328 889.774,738.596C890.22,738.927 890.698,739.232 891.115,739.63C891.559,739.993 891.941,740.434 892.333,740.851C892.685,741.31 893.05,741.749 893.331,742.238C893.647,742.699 893.864,743.21 894.104,743.676C894.284,744.174 894.501,744.631 894.607,745.1C894.669,745.331 894.731,745.554 894.79,745.77C894.827,745.991 894.864,746.204 894.898,746.408C894.981,746.812 895,747.19 895.019,747.522C895.05,747.853 895.054,748.141 895.037,748.38C895.019,748.852 895.009,749.122 895.009,749.122C895.009,749.122 894.972,748.855 894.908,748.388C894.885,748.155 894.832,747.877 894.746,747.562C894.67,747.246 894.59,746.891 894.444,746.521C894.377,746.336 894.308,746.142 894.237,745.942C894.147,745.751 894.053,745.553 893.958,745.348C893.787,744.934 893.505,744.547 893.27,744.129C892.973,743.743 892.707,743.326 892.351,742.966C892.033,742.579 891.639,742.253 891.273,741.912C890.866,741.613 890.483,741.295 890.052,741.058C889.649,740.785 889.2,740.606 888.793,740.399C888.356,740.252 887.961,740.061 887.55,739.979C887.35,739.927 887.157,739.876 886.968,739.827C886.777,739.798 886.592,739.768 886.415,739.741C886.055,739.671 885.752,739.667 885.488,739.655C885.356,739.647 885.232,739.639 885.118,739.633C884.976,739.638 884.846,739.641 884.729,739.646C884.257,739.663 883.988,739.673 883.988,739.673L884.14,736.677Z" style="fill:white;fill-rule:nonzero;"/>
    </g>
    <g transform="matrix(0.812086,0,0,0.812086,-618.324,-568.144)">
        <path d="M868.937,768.065C868.937,768.065 868.967,770.126 869.021,773.732C869.067,777.338 869.081,782.484 869.076,788.66C869.073,791.748 869.07,795.093 869.024,798.629C868.995,802.165 868.963,805.894 868.931,809.752C868.825,817.465 868.711,825.691 868.597,833.919C868.518,838.031 868.391,842.143 868.369,846.191C868.341,850.239 868.227,854.221 868.163,858.077C868.122,860.005 868.081,861.9 868.041,863.756C868.019,865.61 867.999,867.425 867.979,869.19C867.955,872.723 867.895,876.064 867.835,879.149C867.805,880.692 867.777,882.171 867.75,883.577C867.756,884.981 867.763,886.314 867.77,887.565C867.777,890.073 867.783,892.259 867.789,894.058C867.762,897.667 867.747,899.729 867.747,899.729C867.747,899.729 867.545,897.679 867.193,894.093C867.035,892.295 866.842,890.112 866.623,887.608C866.522,886.354 866.414,885.019 866.3,883.613C866.241,882.206 866.178,880.726 866.113,879.182C865.982,876.095 865.845,872.748 865.74,869.207C865.684,867.435 865.627,865.617 865.569,863.758C865.553,861.899 865.538,860 865.521,858.069C865.508,854.207 865.446,850.216 865.472,846.16C865.461,842.103 865.548,837.987 865.6,833.869C865.691,829.751 865.782,825.634 865.872,821.581C865.965,817.528 866.163,813.542 866.297,809.684C866.585,801.968 866.972,794.771 867.362,788.605C867.719,782.438 868.14,777.303 868.428,773.71C868.564,771.912 868.715,770.503 868.799,769.54C868.889,768.578 868.937,768.065 868.937,768.065Z" style="fill:white;fill-rule:nonzero;"/>
    </g>
    <g transform="matrix(0.812086,0,0,0.812086,-618.324,-568.144)">
        <path d="M886.424,752.595C886.424,752.595 886.336,752.715 886.171,752.912C886.096,753.016 885.986,753.125 885.82,753.229C885.666,753.347 885.478,753.476 885.254,753.548C885.037,753.653 884.785,753.715 884.506,753.744C884.231,753.797 883.931,753.759 883.626,753.721C883.33,753.64 883.006,753.578 882.728,753.395C882.41,753.242 882.222,753.051 881.899,752.763C881.731,752.516 881.554,752.348 881.402,751.99C881.218,751.672 881.186,751.35 881.122,751.05C881.106,750.743 881.086,750.441 881.158,750.17C881.205,749.893 881.282,749.646 881.403,749.435C881.49,749.215 881.626,749.044 881.751,748.901C881.862,748.749 881.981,748.639 882.095,748.564C882.31,748.406 882.431,748.331 882.431,748.331C882.431,748.331 882.365,748.462 882.25,748.69C882.182,748.793 882.129,748.932 882.082,749.094C882.025,749.25 881.967,749.422 881.946,749.62C881.9,749.81 881.9,750.02 881.901,750.236C881.885,750.451 881.963,750.674 881.989,750.896C882.062,751.114 882.136,751.343 882.243,751.514C882.292,751.691 882.53,751.937 882.693,752.156C882.812,752.228 883.01,752.479 883.212,752.561C883.405,752.699 883.623,752.78 883.835,752.869C884.055,752.909 884.273,753.003 884.489,753C884.705,753.015 884.914,753.03 885.107,752.996C885.309,752.986 885.476,752.943 885.631,752.899C885.789,752.867 885.939,752.82 886.051,752.755C886.286,752.648 886.424,752.595 886.424,752.595Z" style="fill:white;fill-rule:nonzero;"/>
    </g>
</svg>
