<?xml version="1.0" encoding="UTF-8" standalone="no"?>
<!DOCTYPE svg PUBLIC "-//W3C//DTD SVG 1.1//EN" "http://www.w3.org/Graphics/SVG/1.1/DTD/svg11.dtd">
<svg width="100%" height="100%" viewBox="0 0 200 200" version="1.1" xmlns="http://www.w3.org/2000/svg" xmlns:xlink="http://www.w3.org/1999/xlink" xml:space="preserve" xmlns:serif="http://www.serif.com/" style="fill-rule:evenodd;clip-rule:evenodd;stroke-linecap:round;stroke-linejoin:round;stroke-miterlimit:1.5;">
    <g transform="matrix(0.969349,0,0,0.969349,2.59759,3.06506)">
        <g id="Background">
            <circle cx="100" cy="100" r="100" style="fill:none;stroke:rgb(85,86,86);stroke-width:5.16px;"/>
        </g>
    </g>
    <g transform="matrix(0.754918,0,0,0.754918,-338.671,-523.085)">
        <path d="M590.813,932.366C590.813,934.023 589.471,935.366 587.813,935.367L575.813,935.367C574.157,935.367 572.813,934.024 572.813,932.367L572.813,718.367C572.813,716.71 574.157,715.367 575.813,715.367L587.813,715.367C589.471,715.366 590.813,716.71 590.813,718.367L590.813,932.366Z" style="fill:rgb(85,86,86);fill-rule:nonzero;"/>
    </g>
    <g transform="matrix(0.754918,0,0,0.754918,-338.671,-523.085)">
        <path d="M575.813,717.367C575.261,717.367 574.813,717.815 574.813,718.367L574.813,932.367C574.813,932.919 575.261,933.367 575.813,933.367L587.812,933.367C588.364,933.367 588.813,932.918 588.813,932.366L588.813,718.367C588.813,717.815 588.365,717.367 587.815,717.367L575.813,717.367ZM587.814,937.367L575.813,937.367C573.056,937.367 570.813,935.124 570.813,932.367L570.813,718.367C570.813,715.61 573.056,713.367 575.813,713.367L587.813,713.367C589.15,713.367 590.406,713.888 591.35,714.832C592.293,715.776 592.813,717.031 592.813,718.367L592.813,932.366C592.813,935.122 590.571,937.365 587.814,937.367Z" style="fill:rgb(85,86,86);fill-rule:nonzero;"/>
    </g>
    <g transform="matrix(0.754918,0,0,0.754918,-338.671,-523.085)">
        <path d="M576.553,747.229L575.053,887.729L573.553,747.229L576.553,747.229Z" style="fill:white;fill-rule:nonzero;"/>
    </g>
    <g transform="matrix(0.754918,0,0,0.754918,-338.671,-523.085)">
        <path d="M546.542,753.237C544.754,753.237 543.303,751.788 543.303,749.999L543.303,721.932C543.303,720.145 544.754,718.694 546.542,718.694L615.627,718.694C617.417,718.694 618.866,720.145 618.866,721.933L618.866,749.999C618.866,751.788 617.417,753.237 615.627,753.237L546.542,753.237Z" style="fill:rgb(85,86,86);fill-rule:nonzero;"/>
    </g>
    <g transform="matrix(0.754918,0,0,0.754918,-338.671,-523.085)">
        <path d="M546.542,720.694C545.859,720.694 545.303,721.25 545.303,721.932L545.303,749.999C545.303,750.681 545.859,751.237 546.542,751.237L615.627,751.237C616.31,751.237 616.866,750.681 616.866,749.999L616.866,721.933C616.866,721.25 616.31,720.694 615.627,720.694L546.542,720.694ZM615.627,755.237L546.542,755.237C543.653,755.237 541.303,752.888 541.303,749.999L541.303,721.932C541.303,719.044 543.653,716.694 546.542,716.694L615.627,716.694C618.516,716.694 620.866,719.045 620.866,721.933L620.866,749.999C620.866,752.888 618.516,755.237 615.627,755.237Z" style="fill:rgb(85,86,86);fill-rule:nonzero;"/>
    </g>
    <g transform="matrix(0.754918,0,0,0.754918,-338.671,-523.085)">
        <path d="M548.219,740.129C548.219,740.129 548.239,739.747 548.272,739.08C548.289,738.747 548.308,738.341 548.332,737.877C548.365,737.411 548.339,736.888 548.345,736.319C548.335,735.751 548.361,735.139 548.323,734.491C548.284,733.843 548.242,733.16 548.2,732.454C548.177,731.749 548.039,731.026 547.961,730.294C547.875,729.561 547.786,728.821 547.618,728.091C547.47,727.362 547.323,726.635 547.177,725.918C546.978,725.218 546.783,724.529 546.592,723.862C546.495,723.532 546.415,723.202 546.307,722.889C546.189,722.58 546.073,722.277 545.96,721.982C545.737,721.396 545.526,720.843 545.331,720.331C545.152,719.817 544.881,719.387 544.7,718.985C544.504,718.591 544.333,718.247 544.193,717.963C543.915,717.399 543.755,717.077 543.755,717.077L547.402,715.434C547.402,715.434 547.521,715.82 547.729,716.496C547.832,716.833 547.957,717.241 548.099,717.71C548.226,718.182 548.434,718.693 548.54,719.286C548.659,719.872 548.789,720.507 548.925,721.179C548.993,721.513 549.062,721.856 549.133,722.207C549.192,722.559 549.221,722.925 549.267,723.293C549.35,724.026 549.436,724.785 549.523,725.555C549.551,726.327 549.58,727.11 549.608,727.894C549.655,728.674 549.622,729.454 549.586,730.22C549.542,730.984 549.56,731.734 549.465,732.457C549.39,733.177 549.318,733.873 549.249,734.533C549.179,735.19 549.052,735.81 548.967,736.38C548.867,736.948 548.806,737.472 548.698,737.925C548.599,738.38 548.513,738.776 548.442,739.102C548.3,739.756 548.219,740.129 548.219,740.129Z" style="fill:white;fill-rule:nonzero;"/>
    </g>
    <g transform="matrix(0.754918,0,0,0.754918,-338.671,-523.085)">
        <path d="M546.692,723.733C546.692,723.733 546.79,723.679 546.972,723.577C547.208,723.465 547.555,723.3 547.997,723.09C548.45,722.876 548.9,722.757 549.468,722.549C550.025,722.336 550.65,722.171 551.331,722.007C552.012,721.848 552.743,721.615 553.522,721.487C554.298,721.352 555.118,721.212 555.965,721.064C556.807,720.895 557.684,720.819 558.573,720.729C559.458,720.638 560.359,720.546 561.259,720.454C562.155,720.339 563.06,720.358 563.944,720.305C564.827,720.269 565.697,720.234 566.538,720.2C567.378,720.167 568.188,720.122 568.959,720.151C569.729,720.163 570.457,720.173 571.127,720.182C573.805,720.222 575.59,720.249 575.59,720.249C575.59,720.249 573.821,720.471 571.167,720.806C570.504,720.889 569.788,720.98 569.03,721.076C568.271,721.153 567.479,721.311 566.661,721.46C565.843,721.609 564.999,721.763 564.141,721.921C563.288,722.094 562.408,722.197 561.556,722.431C560.702,722.643 559.848,722.854 559.007,723.061C558.168,723.268 557.34,723.458 556.572,723.731C555.797,723.979 555.049,724.22 554.34,724.448C553.629,724.669 553.01,724.974 552.415,725.202C551.82,725.436 551.286,725.661 550.856,725.903C550.432,726.133 549.984,726.327 549.755,726.489C549.51,726.647 549.317,726.77 549.186,726.855C549.019,726.981 548.93,727.048 548.93,727.048L546.692,723.733Z" style="fill:white;fill-rule:nonzero;"/>
    </g>
    <g transform="matrix(0.754918,0,0,0.754918,-338.671,-523.085)">
        <path d="M613.95,740.129C613.95,740.129 613.869,739.756 613.727,739.102C613.657,738.776 613.571,738.38 613.472,737.925C613.364,737.472 613.302,736.948 613.202,736.38C613.118,735.81 612.99,735.19 612.92,734.533C612.852,733.873 612.78,733.177 612.705,732.456C612.61,731.734 612.627,730.984 612.583,730.22C612.548,729.454 612.515,728.674 612.562,727.894C612.59,727.11 612.619,726.327 612.647,725.555C612.734,724.785 612.82,724.026 612.903,723.292C612.949,722.925 612.978,722.559 613.037,722.206C613.108,721.856 613.177,721.513 613.245,721.179C613.381,720.507 613.511,719.872 613.631,719.286C613.736,718.692 613.944,718.181 614.072,717.71C614.214,717.241 614.339,716.832 614.442,716.495C614.65,715.819 614.769,715.433 614.769,715.433L618.416,717.077C618.416,717.077 618.256,717.399 617.978,717.964C617.837,718.247 617.667,718.591 617.471,718.985C617.289,719.387 617.018,719.817 616.84,720.331C616.645,720.843 616.433,721.396 616.209,721.982C616.097,722.277 615.981,722.58 615.863,722.889C615.755,723.202 615.675,723.531 615.578,723.862C615.387,724.528 615.192,725.218 614.993,725.918C614.847,726.635 614.7,727.362 614.552,728.091C614.385,728.82 614.295,729.561 614.208,730.294C614.131,731.026 613.993,731.749 613.97,732.453C613.928,733.159 613.886,733.843 613.847,734.49C613.809,735.139 613.833,735.751 613.825,736.319C613.831,736.888 613.804,737.411 613.837,737.876C613.861,738.341 613.881,738.747 613.898,739.08C613.931,739.747 613.95,740.129 613.95,740.129Z" style="fill:white;fill-rule:nonzero;"/>
    </g>
    <g transform="matrix(0.754918,0,0,0.754918,-338.671,-523.085)">
        <path d="M613.239,727.048C613.239,727.048 613.15,726.981 612.983,726.855C612.852,726.77 612.659,726.647 612.414,726.489C612.185,726.327 611.737,726.133 611.313,725.903C610.883,725.661 610.349,725.436 609.754,725.202C609.159,724.974 608.54,724.669 607.829,724.448C607.12,724.22 606.372,723.979 605.597,723.731C604.829,723.458 604,723.268 603.162,723.061C602.321,722.854 601.467,722.643 600.613,722.431C599.761,722.197 598.881,722.094 598.028,721.921C597.17,721.763 596.326,721.609 595.508,721.46C594.69,721.311 593.898,721.153 593.139,721.076C592.381,720.98 591.665,720.889 591.002,720.806C588.348,720.471 586.579,720.249 586.579,720.249C586.579,720.249 588.364,720.222 591.042,720.182C591.712,720.173 592.44,720.163 593.209,720.151C593.981,720.122 594.791,720.167 595.631,720.2C596.472,720.234 597.342,720.269 598.225,720.305C599.109,720.358 600.014,720.339 600.91,720.454C601.81,720.546 602.71,720.638 603.596,720.729C604.485,720.819 605.362,720.895 606.204,721.064C607.051,721.212 607.871,721.352 608.647,721.487C609.426,721.615 610.157,721.848 610.838,722.007C611.519,722.171 612.144,722.336 612.701,722.549C613.269,722.757 613.719,722.876 614.172,723.09C614.614,723.3 614.96,723.465 615.197,723.577C615.379,723.679 615.477,723.733 615.477,723.733L613.239,727.048Z" style="fill:white;fill-rule:nonzero;"/>
    </g>
    <g transform="matrix(0.754918,0,0,0.754918,-338.671,-523.085)">
        <path d="M552.862,750.621C552.862,750.621 556.39,750.119 561.681,749.763C563.004,749.671 564.438,749.569 565.954,749.506C567.469,749.432 569.068,749.34 570.722,749.304C572.375,749.264 574.084,749.18 575.821,749.174C577.557,749.157 579.321,749.139 581.084,749.122C582.849,749.138 584.613,749.156 586.349,749.173C588.085,749.173 589.794,749.262 591.448,749.3C594.755,749.405 597.842,749.566 600.489,749.76C605.78,750.116 609.308,750.621 609.308,750.621C609.308,750.621 605.78,751.126 600.489,751.482C597.842,751.677 594.755,751.837 591.448,751.942C589.794,751.98 588.085,752.069 586.349,752.069C584.613,752.086 582.849,752.103 581.084,752.12C579.321,752.102 577.557,752.085 575.821,752.068C574.084,752.061 572.375,751.977 570.722,751.938C569.068,751.902 567.469,751.809 565.954,751.736C564.438,751.673 563.004,751.571 561.681,751.478C556.39,751.123 552.862,750.621 552.862,750.621Z" style="fill:white;fill-rule:nonzero;"/>
    </g>
</svg>
