<?xml version="1.0" encoding="UTF-8" standalone="no"?>
<!DOCTYPE svg PUBLIC "-//W3C//DTD SVG 1.1//EN" "http://www.w3.org/Graphics/SVG/1.1/DTD/svg11.dtd">
<svg width="100%" height="100%" viewBox="0 0 1133 1086" version="1.1" xmlns="http://www.w3.org/2000/svg" xmlns:xlink="http://www.w3.org/1999/xlink" xml:space="preserve" xmlns:serif="http://www.serif.com/" style="fill-rule:evenodd;clip-rule:evenodd;stroke-linejoin:round;stroke-miterlimit:2;">
    <g id="Artboard1" transform="matrix(0.975043,0,0,1,-1250,-1550)">
        <g transform="matrix(4.27332,0,0,4.16667,-79.94,0)">
            <path d="M536.165,537.502L536.165,521.044C536.165,520.568 535.78,520.183 535.304,520.183L408.877,520.183C408.402,520.183 408.017,520.568 408.017,521.044L408.017,525.273L394.751,525.273C394.276,525.273 393.891,525.658 393.891,526.135L393.891,527.14L322.751,527.14C319.31,527.14 350.721,561.131 392.6,561.131L393.891,561.131L393.891,562.422C393.891,562.896 394.276,563.281 394.751,563.281L409.875,563.281C416.171,567.988 423.754,576.433 415.905,586.228C411.231,592.062 398.049,593.328 398.049,593.328L387.078,605.375L387.078,620.435L412.462,620.435C412.462,620.435 419.563,614.842 421.928,613.765C424.295,612.689 432.255,609.894 443.658,609.894C443.707,609.894 443.75,609.885 443.798,609.883C443.846,609.885 443.891,609.894 443.94,609.894C455.341,609.894 463.302,612.689 465.668,613.765C468.035,614.842 475.134,620.435 475.134,620.435L500.52,620.435L500.52,605.375L489.547,593.328C489.547,593.328 473.299,592.375 469.043,586.228C457.483,569.533 477.663,540.41 535.305,538.39C535.782,538.373 536.165,537.978 536.165,537.502Z" style="fill:#FEFDF3;fill-rule:nonzero;"/>
            <path d="M393.948,555.109L389.908,526.144L393.898,525.863L393.948,555.109Z" style="fill:black;fill-rule:nonzero;"/>
            <path d="M408.447,539.377L404.066,522.934L408.025,522.366L408.447,539.377Z" style="fill:black;fill-rule:nonzero;"/>
            <path d="M411.709,606.127C411.709,606.127 412.319,605.033 413.571,603.23C414.827,601.433 416.726,598.922 419.346,596.187C420.653,594.819 422.13,593.383 423.814,591.992C425.492,590.596 427.344,589.195 429.419,587.967C431.493,586.744 433.75,585.606 436.21,584.832C438.684,584.05 441.236,583.554 444.005,583.55C444.641,583.586 445.218,583.58 445.9,583.658C446.576,583.744 447.278,583.798 447.911,583.941C448.56,584.058 449.204,584.189 449.831,584.37C450.467,584.522 451.083,584.723 451.694,584.931C454.146,585.747 456.384,586.936 458.422,588.22C460.467,589.5 462.286,590.947 463.922,592.392C465.568,593.831 467.004,595.307 468.27,596.716C470.809,599.526 472.631,602.094 473.832,603.929C475.029,605.768 475.604,606.881 475.604,606.881C475.604,606.881 474.816,605.907 473.359,604.292C471.903,602.677 469.769,600.423 467.047,597.929C464.313,595.458 460.974,592.736 457.057,590.481C455.108,589.342 452.98,588.41 450.78,587.679C450.228,587.501 449.673,587.327 449.106,587.202C448.545,587.047 447.974,586.941 447.401,586.846C446.821,586.721 446.279,586.7 445.722,586.629C445.169,586.564 444.497,586.579 443.891,586.546C441.677,586.521 439.272,586.918 437.073,587.594C434.854,588.28 432.707,589.175 430.724,590.256C428.747,591.346 426.883,592.525 425.184,593.754C423.49,594.989 421.928,596.23 420.527,597.43C417.732,599.844 415.533,602.035 414.031,603.606C412.525,605.177 411.709,606.127 411.709,606.127Z" style="fill:black;fill-rule:nonzero;"/>
            <path d="M466.711,587.375C466.711,587.375 468.447,589.174 471.355,591.501C472.799,592.674 474.543,593.966 476.463,595.259C477.421,595.908 478.447,596.525 479.472,597.167C480.536,597.75 481.577,598.402 482.68,598.94C483.78,599.482 484.855,600.064 485.972,600.511C486.523,600.747 487.069,600.982 487.608,601.215C488.147,601.445 488.703,601.614 489.235,601.812C489.769,602.003 490.295,602.189 490.809,602.373C491.326,602.547 491.846,602.667 492.343,602.811C493.343,603.078 494.273,603.38 495.164,603.512C496.042,603.679 496.848,603.834 497.562,603.97C498.282,604.042 498.91,604.104 499.426,604.156C500.455,604.259 501.042,604.317 501.042,604.317L500.63,608.296C500.63,608.296 499.988,608.168 498.863,607.942C498.304,607.828 497.625,607.689 496.846,607.529C496.087,607.304 495.231,607.051 494.297,606.774C493.355,606.531 492.389,606.112 491.355,605.721C490.842,605.513 490.304,605.329 489.777,605.091C489.254,604.844 488.72,604.591 488.177,604.334C487.639,604.069 487.077,603.833 486.538,603.536C486,603.237 485.456,602.935 484.908,602.631C483.797,602.05 482.744,601.338 481.67,600.666C480.594,600 479.591,599.223 478.57,598.52C477.587,597.761 476.612,597.029 475.708,596.273C473.893,594.767 472.27,593.291 470.939,591.967C468.256,589.338 466.711,587.375 466.711,587.375Z" style="fill:black;fill-rule:nonzero;"/>
            <path d="M417.409,587.375C417.409,587.375 416.084,589.267 413.758,591.848C412.593,593.136 411.194,594.608 409.592,596.09C408.811,596.853 407.931,597.561 407.072,598.328C406.175,599.045 405.27,599.789 404.325,600.484C403.355,601.143 402.435,601.887 401.429,602.47C400.438,603.077 399.481,603.714 398.479,604.205C397.493,604.724 396.548,605.253 395.588,605.63C394.635,606.017 393.764,606.473 392.89,606.721C392.027,607.005 391.235,607.265 390.534,607.496C389.819,607.686 389.181,607.808 388.66,607.93C387.613,608.161 387.014,608.293 387.014,608.293L386.555,604.32C386.555,604.32 387.091,604.26 388.029,604.154C388.499,604.096 389.075,604.054 389.73,603.955C390.382,603.816 391.117,603.659 391.919,603.488C392.734,603.356 393.571,603.02 394.486,602.763C395.407,602.515 396.333,602.118 397.307,601.734C398.293,601.38 399.257,600.877 400.258,600.405C401.273,599.958 402.224,599.345 403.224,598.815C404.201,598.247 405.151,597.626 406.096,597.026C407.005,596.376 407.939,595.78 408.779,595.119C410.5,593.845 412.03,592.55 413.316,591.406C415.885,589.113 417.409,587.375 417.409,587.375Z" style="fill:black;fill-rule:nonzero;"/>
            <path d="M407.436,525.714L484.617,525.357L407.558,529.712L407.436,525.714Z" style="fill:black;fill-rule:nonzero;"/>
            <path d="M337.374,531.176C337.374,531.176 338.229,531.358 339.738,531.602C341.25,531.833 343.414,532.124 346.021,532.356C347.327,532.459 348.739,532.578 350.236,532.648C351.733,532.721 353.311,532.795 354.946,532.805C356.579,532.854 358.267,532.819 359.98,532.799C361.694,532.789 363.434,532.669 365.171,532.608C366.905,532.483 368.64,532.357 370.348,532.234C372.048,532.051 373.722,531.87 375.342,531.695C376.954,531.466 378.512,531.245 379.99,531.035C381.468,530.844 382.849,530.538 384.131,530.323C385.41,530.082 386.589,529.904 387.618,529.657C388.649,529.429 389.549,529.232 390.29,529.069C391.77,528.744 392.616,528.557 392.616,528.557L393.237,531.493C393.237,531.493 392.366,531.636 390.842,531.887C390.08,532.012 389.156,532.164 388.095,532.338C387.039,532.532 385.829,532.65 384.519,532.825C383.205,532.973 381.792,533.206 380.281,533.32C378.773,533.453 377.184,533.592 375.54,533.736C373.892,533.825 372.19,533.917 370.46,534.01C368.73,534.043 366.972,534.075 365.214,534.108C363.456,534.075 361.699,534.101 359.972,534.019C358.244,533.947 356.545,533.89 354.904,533.754C353.262,533.654 351.68,533.495 350.181,533.342C348.682,533.19 347.27,532.995 345.968,532.822C343.365,532.448 341.214,532.041 339.715,531.728C338.218,531.404 337.374,531.176 337.374,531.176Z" style="fill:black;fill-rule:nonzero;"/>
            <path d="M581.917,501.703C583.424,502.394 584.085,504.172 583.396,505.679L578.4,516.59C577.71,518.096 575.929,518.758 574.422,518.068L443.5,458.109C441.993,457.42 441.333,455.638 442.022,454.133L447.018,443.221C447.708,441.714 449.489,441.054 450.995,441.744L581.917,501.703Z" style="fill:#FEFDF3;fill-rule:nonzero;"/>
            <path d="M449.746,443.47C449.355,443.47 448.999,443.699 448.837,444.053L443.84,454.965C443.69,455.293 443.758,455.586 443.812,455.731C443.866,455.875 444.005,456.141 444.332,456.29L575.255,516.25C575.75,516.477 576.361,516.242 576.582,515.757L581.578,504.846C581.806,504.346 581.584,503.751 581.083,503.521L450.162,443.562C450.028,443.501 449.889,443.47 449.746,443.47ZM575.669,520.341C574.949,520.341 574.249,520.188 573.59,519.887L442.667,459.928C441.454,459.372 440.528,458.376 440.063,457.123C439.598,455.872 439.647,454.514 440.204,453.3L445.2,442.389C446.01,440.616 447.795,439.47 449.746,439.47C450.468,439.47 451.168,439.623 451.828,439.926L582.75,499.885C585.254,501.033 586.361,504.006 585.215,506.512L580.218,517.424C579.407,519.195 577.621,520.341 575.669,520.341Z" style="fill:#FEFDF3;fill-rule:nonzero;"/>
            <path d="M471.299,466.726L534.772,497.445L470.049,469.453L471.299,466.726Z" style="fill:black;fill-rule:nonzero;"/>
            <path d="M464.264,496.513C463.52,498.138 461.598,498.855 459.971,498.109L434.456,486.424C432.83,485.679 432.115,483.756 432.859,482.131L461.625,419.318C462.371,417.692 464.293,416.978 465.918,417.723L491.435,429.408C493.061,430.154 493.776,432.075 493.032,433.701L464.264,496.513Z" style="fill:#FEFDF3;fill-rule:nonzero;"/>
            <path d="M464.572,419.428C464.088,419.428 463.645,419.712 463.444,420.151L434.677,482.964C434.54,483.263 434.528,483.6 434.643,483.91C434.758,484.221 434.987,484.468 435.288,484.605L460.804,496.291C461.42,496.571 462.171,496.282 462.446,495.68L491.213,432.868C491.498,432.248 491.223,431.512 490.602,431.227L465.085,419.541C464.921,419.466 464.749,419.428 464.572,419.428ZM461.318,500.404C460.562,500.404 459.829,500.244 459.138,499.928L433.623,488.242C432.351,487.66 431.382,486.617 430.894,485.304C430.406,483.993 430.458,482.57 431.041,481.298L459.807,418.485C460.659,416.628 462.529,415.428 464.572,415.428C465.328,415.428 466.061,415.588 466.751,415.905L492.268,427.59C494.893,428.793 496.051,431.908 494.85,434.533L466.083,497.346C465.232,499.204 463.362,500.404 461.318,500.404Z" style="fill:#FEFDF3;fill-rule:nonzero;"/>
            <path d="M453.044,489.531C453.044,489.531 452.706,489.355 452.113,489.047C451.816,488.892 451.457,488.705 451.044,488.491C450.635,488.266 450.148,488.072 449.634,487.83C449.113,487.601 448.568,487.324 447.961,487.089C447.356,486.854 446.718,486.607 446.058,486.352C445.409,486.079 444.694,485.904 443.996,485.67C443.293,485.443 442.583,485.216 441.85,485.064C441.126,484.895 440.403,484.726 439.691,484.559C438.971,484.449 438.263,484.341 437.578,484.236C437.237,484.187 436.904,484.123 436.575,484.09C436.244,484.068 435.92,484.048 435.606,484.028C434.98,483.987 434.389,483.949 433.843,483.913C433.3,483.861 432.796,483.928 432.356,483.926C431.916,483.939 431.532,483.951 431.215,483.961C430.586,483.979 430.227,483.99 430.227,483.99L430.252,479.99C430.252,479.99 430.653,480.043 431.354,480.136C431.703,480.182 432.126,480.239 432.612,480.304C433.094,480.386 433.646,480.409 434.229,480.56C434.811,480.695 435.442,480.843 436.11,480.997C436.442,481.075 436.783,481.155 437.131,481.236C437.476,481.33 437.82,481.456 438.174,481.567C438.876,481.797 439.601,482.035 440.338,482.277C441.051,482.572 441.775,482.873 442.5,483.174C443.228,483.455 443.923,483.81 444.604,484.161C445.282,484.519 445.971,484.815 446.588,485.203C447.212,485.571 447.814,485.927 448.386,486.263C448.956,486.601 449.465,486.975 449.948,487.289C450.422,487.617 450.875,487.89 451.24,488.179C451.613,488.457 451.937,488.701 452.205,488.901C452.739,489.302 453.044,489.531 453.044,489.531Z" style="fill:black;fill-rule:nonzero;"/>
            <path d="M437.502,484.091C437.502,484.091 437.494,483.979 437.478,483.77C437.474,483.509 437.468,483.125 437.46,482.637C437.455,482.136 437.535,481.677 437.582,481.074C437.62,480.479 437.73,479.842 437.864,479.154C438.004,478.47 438.096,477.708 438.305,476.946C438.506,476.184 438.718,475.381 438.938,474.549C439.134,473.713 439.43,472.884 439.718,472.038C440.005,471.195 440.296,470.339 440.587,469.482C440.855,468.619 441.25,467.804 441.569,466.979C441.905,466.161 442.235,465.356 442.555,464.577C442.874,463.799 443.17,463.044 443.518,462.355C443.848,461.66 444.161,461.003 444.449,460.396C445.601,457.979 446.368,456.367 446.368,456.367C446.368,456.367 445.833,458.069 445.033,460.622C444.833,461.258 444.617,461.947 444.388,462.676C444.143,463.398 443.956,464.183 443.751,464.99C443.546,465.795 443.335,466.627 443.12,467.472C442.922,468.32 442.65,469.164 442.509,470.035C442.345,470.899 442.181,471.763 442.02,472.615C441.858,473.463 441.686,474.295 441.614,475.107C441.518,475.915 441.425,476.695 441.337,477.435C441.242,478.174 441.262,478.863 441.221,479.5C441.186,480.138 441.167,480.717 441.209,481.21C441.241,481.69 441.231,482.178 441.284,482.454C441.325,482.742 441.357,482.969 441.379,483.124C441.424,483.327 441.448,483.436 441.448,483.436L437.502,484.091Z" style="fill:black;fill-rule:nonzero;"/>
            <path d="M480.415,429.769C480.415,429.769 480.042,429.687 479.389,429.544C479.063,429.472 478.667,429.386 478.211,429.285C477.755,429.196 477.252,429.033 476.695,428.888C476.142,428.727 475.525,428.585 474.898,428.374C474.27,428.161 473.607,427.937 472.92,427.706C472.224,427.492 471.55,427.163 470.836,426.885C470.125,426.597 469.402,426.303 468.713,425.936C468.012,425.584 467.312,425.231 466.623,424.885C465.958,424.485 465.304,424.091 464.671,423.71C464.356,423.515 464.036,423.336 463.74,423.136C463.451,422.926 463.167,422.72 462.892,422.519C462.338,422.115 461.815,421.733 461.332,421.38C460.836,421.037 460.458,420.635 460.082,420.323C459.715,419.998 459.396,419.714 459.132,419.48C458.604,419.01 458.303,418.742 458.303,418.742L461.315,416.11C461.315,416.11 461.542,416.389 461.939,416.877C462.138,417.123 462.379,417.421 462.657,417.763C462.946,418.096 463.224,418.521 463.619,418.898C464.002,419.288 464.417,419.711 464.857,420.158C465.078,420.383 465.305,420.615 465.537,420.851C465.777,421.079 466.042,421.289 466.303,421.515C466.83,421.966 467.375,422.43 467.928,422.903C468.519,423.334 469.12,423.771 469.72,424.208C470.314,424.664 470.951,425.054 471.581,425.438C472.214,425.813 472.813,426.24 473.445,426.554C474.069,426.887 474.673,427.208 475.246,427.514C475.82,427.819 476.385,428.051 476.899,428.297C477.418,428.528 477.883,428.769 478.32,428.933C478.752,429.105 479.129,429.256 479.439,429.38C480.06,429.627 480.415,429.769 480.415,429.769Z" style="fill:black;fill-rule:nonzero;"/>
            <path d="M468.225,424.969C468.225,424.969 468.126,425.022 467.943,425.121C467.812,425.205 467.619,425.329 467.374,425.487C467.13,425.627 466.767,425.953 466.383,426.243C465.983,426.533 465.556,426.925 465.096,427.368C464.641,427.815 464.105,428.25 463.609,428.805C463.106,429.355 462.576,429.935 462.027,430.535C461.458,431.12 460.941,431.794 460.405,432.471C459.866,433.149 459.318,433.837 458.771,434.526C458.203,435.202 457.743,435.959 457.229,436.663C456.73,437.378 456.238,438.081 455.762,438.763C455.286,439.445 454.813,440.099 454.426,440.757C454.024,441.406 453.643,442.019 453.292,442.587C451.882,444.861 450.943,446.377 450.943,446.377C450.943,446.377 451.662,444.743 452.741,442.292C453.011,441.678 453.305,441.012 453.615,440.307C453.909,439.594 454.288,438.876 454.668,438.126C455.049,437.375 455.443,436.599 455.843,435.811C456.26,435.03 456.619,434.199 457.096,433.432C457.555,432.652 458.013,431.872 458.464,431.104C458.917,430.334 459.351,429.568 459.856,428.873C460.341,428.164 460.812,427.478 461.257,426.828C461.698,426.173 462.214,425.605 462.642,425.052C463.074,424.501 463.485,424.002 463.911,423.584C464.336,423.155 464.631,422.795 465.015,422.471C465.389,422.158 465.684,421.912 465.885,421.744C466.053,421.619 466.143,421.553 466.143,421.553L468.225,424.969Z" style="fill:black;fill-rule:nonzero;"/>
            <path d="M464.518,489.678C464.518,489.678 465.531,486.262 467.411,481.302C467.876,480.06 468.382,478.715 468.955,477.31C469.52,475.901 470.101,474.41 470.756,472.891C471.41,471.371 472.044,469.783 472.762,468.201C473.469,466.615 474.188,465.005 474.907,463.393C475.657,461.797 476.407,460.2 477.145,458.629C477.869,457.05 478.661,455.533 479.383,454.046C480.856,451.082 482.288,448.343 483.566,446.017C486.093,441.355 488.021,438.358 488.021,438.358C488.021,438.358 487.011,441.775 485.131,446.735C484.207,449.221 483.068,452.096 481.786,455.145C481.131,456.665 480.5,458.256 479.779,459.835C479.071,461.42 478.351,463.031 477.632,464.641C476.882,466.238 476.131,467.835 475.393,469.406C474.665,470.982 473.876,472.501 473.152,473.988C472.431,475.476 471.681,476.891 470.984,478.239C470.294,479.591 469.606,480.851 468.97,482.015C466.443,486.679 464.518,489.678 464.518,489.678Z" style="fill:black;fill-rule:nonzero;"/>
            <path d="M378.688,504.258L377.363,500.484L411.107,488.64L412.433,492.414L378.688,504.258Z" style="fill:#FEFDF3;fill-rule:nonzero;"/>
            <path d="M408.746,457.518L373.603,450.9L374.343,446.969L409.486,453.587L408.746,457.518Z" style="fill:#FEFDF3;fill-rule:nonzero;"/>
            <path d="M451.382,404.806L439.541,371.064L443.315,369.74L455.156,403.482L451.382,404.806Z" style="fill:#FEFDF3;fill-rule:nonzero;"/>
            <path d="M435.833,413.258L407.935,372.418L411.238,370.162L439.135,411.002L435.833,413.258Z" style="fill:#FEFDF3;fill-rule:nonzero;"/>
            <path d="M413.761,440.542L369.181,419.124L370.914,415.519L415.494,436.936L413.761,440.542Z" style="fill:#FEFDF3;fill-rule:nonzero;"/>
            <path d="M358.974,478.947L358.671,474.959L407.987,471.219L408.29,475.207L358.974,478.947Z" style="fill:#FEFDF3;fill-rule:nonzero;"/>
            <path d="M423.002,425.448L395.877,402.147L398.483,399.113L425.608,422.414L423.002,425.448Z" style="fill:#FEFDF3;fill-rule:nonzero;"/>
        </g>
    </g>
</svg>
